<?xml version="1.0" encoding="utf-8"?>
<!-- Generator: Adobe Illustrator 16.0.0, SVG Export Plug-In . SVG Version: 6.00 Build 0)  -->
<!DOCTYPE svg PUBLIC "-//W3C//DTD SVG 1.1//EN" "http://www.w3.org/Graphics/SVG/1.1/DTD/svg11.dtd">
<svg version="1.1" id="Layer_1" xmlns="http://www.w3.org/2000/svg" xmlns:xlink="http://www.w3.org/1999/xlink" x="0px" y="0px"
	 width="40px" height="20px" viewBox="0 0 40 20" enable-background="new 0 0 40 20" xml:space="preserve">
<path fill="#FFFFFF" d="M39,0c-0.276,0-0.526,0.112-0.707,0.293L20,17.623L1.707,0.293C1.526,0.112,1.276,0,1,0C0.447,0,0,0.447,0,1
	c0,0.276,0.111,0.526,0.293,0.707l19,18C19.474,19.889,19.724,20,20,20s0.526-0.111,0.707-0.293l19-18C39.889,1.526,40,1.276,40,1
	C40,0.447,39.553,0,39,0"/>
</svg>
