<?xml version="1.0" encoding="utf-8"?>
<!-- Generator: Adobe Illustrator 16.0.0, SVG Export Plug-In . SVG Version: 6.00 Build 0)  -->
<!DOCTYPE svg PUBLIC "-//W3C//DTD SVG 1.1//EN" "http://www.w3.org/Graphics/SVG/1.1/DTD/svg11.dtd">
<svg version="1.1" id="Layer_1" xmlns="http://www.w3.org/2000/svg" xmlns:xlink="http://www.w3.org/1999/xlink" x="0px" y="0px"
	 width="111px" height="103.6px" viewBox="124.5 128.2 111 103.6" enable-background="new 124.5 128.2 111 103.6"
	 xml:space="preserve">
<g>
	<g>
		<g>
			<path fill="#F7941D" d="M202.648,220.755c-0.992-0.252-1.996,0.354-2.243,1.345l-1.85,7.4c-0.249,0.993,0.355,1.996,1.347,2.244
				c0.15,0.039,0.302,0.056,0.45,0.056c0.829,0,1.582-0.562,1.792-1.4l1.851-7.4C204.242,222.008,203.64,221.003,202.648,220.755z"
				/>
			<path fill="#F7941D" d="M180,183.7c0.24,0,0.481-0.047,0.707-0.141l20.351-8.421c0.943-0.391,1.391-1.473,1.001-2.417
				c-0.391-0.945-1.477-1.389-2.418-1.002L180,179.848l-51.8-21.434V157.8c0-1.021-0.829-1.85-1.85-1.85s-1.85,0.829-1.85,1.85v1.85
				c0,0.75,0.451,1.425,1.144,1.709l53.65,22.2C179.52,183.653,179.76,183.7,180,183.7z"/>
			<path fill="#F7941D" d="M202.008,202.653c-0.451-0.916-1.558-1.294-2.478-0.84c-3.513,1.736-9.381,3.757-17.68,4.032V189.25
				c0-1.021-0.829-1.851-1.85-1.851s-1.85,0.829-1.85,1.851v16.579c-22.972-0.732-30.385-14.648-31.45-16.964V176.3
				c0-1.021-0.829-1.85-1.85-1.85s-1.85,0.829-1.85,1.85v12.95c0,0.234,0.044,0.468,0.131,0.688
				c0.322,0.801,8.195,19.662,36.869,19.662c10.021,0,17.044-2.431,21.17-4.47C202.087,204.677,202.463,203.568,202.008,202.653z"/>
			<path fill="#F7941D" d="M207.75,222.55c-1.022,0-1.85,0.828-1.85,1.85v5.55c0,1.021,0.827,1.851,1.85,1.851
				c1.023,0,1.851-0.829,1.851-1.851v-5.55C209.601,223.378,208.773,222.55,207.75,222.55z"/>
			<path fill="#F7941D" d="M233.65,155.95c-1.023,0-1.851,0.829-1.851,1.85v0.61l-22.199,9.137v-3.343l24.756-10.245
				c0.692-0.285,1.144-0.96,1.144-1.709c0-0.75-0.451-1.423-1.141-1.709l-53.652-22.2c-0.453-0.187-0.96-0.187-1.413,0l-53.65,22.2
				c-0.692,0.287-1.144,0.96-1.144,1.71c0,0.749,0.451,1.424,1.144,1.709l53.65,22.2c0.226,0.094,0.466,0.141,0.707,0.141
				s0.481-0.046,0.707-0.141l19.399-8.027c0.945-0.388,1.394-1.471,1.003-2.416c-0.391-0.943-1.473-1.39-2.416-1.001L180,172.448
				l-48.813-20.198L180,132.051l48.812,20.199l-21.24,8.789l-20.344-7.596c0.107-0.385,0.172-0.781,0.172-1.193
				c0-3.112-3.25-5.55-7.4-5.55c-4.149,0-7.4,2.438-7.4,5.55c0,3.111,3.25,5.55,7.4,5.55c1.852,0,3.504-0.505,4.788-1.319
				l21.112,7.883v5.927v0.002v39.647c-2.147,0.768-3.7,2.801-3.7,5.209c0,3.061,2.49,5.551,5.55,5.551c3.061,0,5.55-2.49,5.55-5.551
				c0-2.408-1.552-4.441-3.699-5.209v-10.501c5.311-4.009,7.215-9.348,7.298-9.584c0.066-0.195,0.102-0.4,0.102-0.605V176.3
				c0-1.021-0.826-1.85-1.85-1.85s-1.851,0.829-1.851,1.85v12.608c-0.319,0.784-1.432,3.202-3.699,5.589v-22.948l24.755-10.188
				c0.693-0.285,1.145-0.962,1.145-1.711v-1.85C235.5,156.778,234.674,155.95,233.65,155.95z M180,154.1
				c-2.259,0-3.7-1.095-3.7-1.85c0-0.755,1.441-1.85,3.7-1.85c2.258,0,3.7,1.095,3.7,1.85C183.7,153.004,182.259,154.1,180,154.1z
				 M207.75,217c-1.021,0-1.85-0.831-1.85-1.851s0.829-1.85,1.85-1.85c1.021,0,1.851,0.83,1.851,1.85S208.771,217,207.75,217z"/>
			<path fill="#F7941D" d="M215.095,222.1c-0.248-0.989-1.254-1.595-2.242-1.345c-0.991,0.248-1.595,1.253-1.347,2.244l1.85,7.4
				c0.211,0.839,0.964,1.4,1.793,1.4c0.148,0,0.3-0.017,0.45-0.056c0.991-0.248,1.595-1.251,1.347-2.244L215.095,222.1z"/>
		</g>
	</g>
</g>
</svg>
