<?xml version="1.0" encoding="utf-8"?>
<!-- Generator: Adobe Illustrator 16.0.0, SVG Export Plug-In . SVG Version: 6.00 Build 0)  -->
<!DOCTYPE svg PUBLIC "-//W3C//DTD SVG 1.1//EN" "http://www.w3.org/Graphics/SVG/1.1/DTD/svg11.dtd">
<svg version="1.1" id="Capa_1" xmlns="http://www.w3.org/2000/svg" xmlns:xlink="http://www.w3.org/1999/xlink" x="0px" y="0px"
	 width="21px" height="20.986px" viewBox="169.5 169.507 21 20.986" enable-background="new 169.5 169.507 21 20.986"
	 xml:space="preserve">
<g>
	<g>
		<path fill="#01578A" d="M190.49,186.069c0.044,0.341-0.06,0.637-0.312,0.889l-2.957,2.935c-0.133,0.148-0.308,0.274-0.522,0.378
			s-0.426,0.171-0.633,0.2c-0.016,0-0.06,0.004-0.134,0.012c-0.074,0.007-0.171,0.011-0.289,0.011c-0.281,0-0.737-0.048-1.367-0.145
			s-1.4-0.334-2.312-0.712c-0.912-0.377-1.946-0.944-3.102-1.7c-1.156-0.756-2.386-1.793-3.69-3.112
			c-1.038-1.022-1.897-2.001-2.579-2.935s-1.23-1.797-1.645-2.59s-0.726-1.512-0.934-2.157c-0.208-0.645-0.349-1.2-0.422-1.667
			c-0.074-0.467-0.104-0.834-0.089-1.101c0.015-0.267,0.022-0.415,0.022-0.445c0.03-0.208,0.096-0.418,0.2-0.633
			c0.104-0.215,0.229-0.389,0.378-0.522l2.957-2.957c0.208-0.208,0.445-0.311,0.711-0.311c0.193,0,0.363,0.056,0.511,0.167
			c0.148,0.111,0.274,0.249,0.378,0.412l2.379,4.513c0.133,0.237,0.17,0.497,0.111,0.778c-0.06,0.281-0.186,0.519-0.378,0.711
			l-1.089,1.089c-0.03,0.029-0.056,0.078-0.078,0.145c-0.022,0.066-0.033,0.122-0.033,0.167c0.059,0.311,0.193,0.667,0.4,1.067
			c0.178,0.356,0.452,0.79,0.822,1.301s0.897,1.101,1.579,1.768c0.667,0.682,1.26,1.211,1.778,1.59
			c0.519,0.377,0.952,0.655,1.301,0.833c0.348,0.178,0.615,0.285,0.8,0.322l0.278,0.056c0.029,0,0.078-0.011,0.145-0.033
			s0.114-0.048,0.145-0.078l1.267-1.289c0.268-0.237,0.578-0.355,0.935-0.355c0.252,0,0.451,0.044,0.6,0.133h0.022l4.29,2.534
			C190.245,185.528,190.431,185.772,190.49,186.069z"/>
	</g>
</g>
</svg>
