<?xml version="1.0" encoding="utf-8"?>
<!-- Generator: Adobe Illustrator 16.0.0, SVG Export Plug-In . SVG Version: 6.00 Build 0)  -->
<!DOCTYPE svg PUBLIC "-//W3C//DTD SVG 1.1//EN" "http://www.w3.org/Graphics/SVG/1.1/DTD/svg11.dtd">
<svg version="1.1" id="Layer_1" xmlns="http://www.w3.org/2000/svg" xmlns:xlink="http://www.w3.org/1999/xlink" x="0px" y="0px"
	 width="108px" height="45.297px" viewBox="0 0 108 45.297" enable-background="new 0 0 108 45.297" xml:space="preserve">
<g>
	<defs>
		<rect id="SVGID_1_" width="108" height="45.297"/>
	</defs>
	<clipPath id="SVGID_2_">
		<use xlink:href="#SVGID_1_"  overflow="visible"/>
	</clipPath>
	<path clip-path="url(#SVGID_2_)" fill="#FFFFFF" d="M1.988,15.25v18.221h5.505V20.09h8.825v-4.84H7.493c0,0-1.21-8.987,8.825-8.464
		V1.874C16.318,1.874,1.988-0.41,1.988,15.25"/>
	<path clip-path="url(#SVGID_2_)" fill="#FFFFFF" d="M32.631,28.014c-0.853,0.39-1.812,0.588-2.852,0.588
		c-1.215,0-2.332-0.283-3.322-0.841c-0.983-0.554-1.753-1.327-2.291-2.298c-0.541-0.977-0.815-2.118-0.815-3.394
		c0-1.839,0.601-3.341,1.838-4.592c1.236-1.249,2.715-1.857,4.521-1.857c1.824,0,3.463,0.657,4.981,1.984l1.81-4.827
		c-0.524-0.35-1.075-0.66-1.651-0.926c-1.619-0.749-3.327-1.129-5.079-1.129c-2.06,0-4.011,0.515-5.796,1.529
		c-1.79,1.018-3.184,2.383-4.146,4.058c-0.962,1.674-1.45,3.609-1.45,5.753c0,3.312,1.07,6.071,3.181,8.198
		c2.113,2.13,4.856,3.21,8.156,3.21c1.782,0,3.395-0.305,4.796-0.906c0.682-0.293,1.386-0.702,2.108-1.22l-1.815-4.844
		C34.023,27.202,33.294,27.711,32.631,28.014"/>
	<path clip-path="url(#SVGID_2_)" fill="#FFFFFF" d="M64.358,12.816h3.237c0,0.035,0.002,0.075,0.008,0.119
		c0.004,0.04,0.007,0.086,0.01,0.139s0.004,0.113,0.004,0.182c0,0.14-0.007,0.284-0.021,0.433h-2.289v1.425h2.14
		c0,0.039,0.003,0.083,0.007,0.133c0.005,0.04,0.01,0.087,0.012,0.145c0.003,0.056,0.004,0.119,0.004,0.188
		c0,0.123-0.007,0.258-0.021,0.407h-2.141v2.446c-0.036,0.005-0.075,0.01-0.12,0.015c-0.039,0.005-0.087,0.007-0.142,0.007h-0.193
		c-0.16,0-0.324-0.007-0.493-0.022V12.816L64.358,12.816z"/>
	<path clip-path="url(#SVGID_2_)" fill="#FFFFFF" d="M70.516,18.553c-0.391,0-0.728-0.068-1.009-0.205
		c-0.28-0.137-0.511-0.332-0.692-0.585c-0.181-0.254-0.313-0.56-0.397-0.917s-0.127-0.761-0.127-1.208
		c0-0.477,0.042-0.892,0.127-1.245c0.085-0.354,0.217-0.646,0.397-0.876c0.182-0.231,0.412-0.404,0.692-0.519
		c0.281-0.114,0.616-0.171,1.009-0.171c0.78,0,1.346,0.229,1.699,0.689c0.352,0.46,0.528,1.167,0.528,2.122
		c0,0.447-0.043,0.851-0.127,1.208c-0.084,0.358-0.217,0.664-0.398,0.918c-0.181,0.253-0.412,0.448-0.692,0.585
		C71.245,18.484,70.908,18.553,70.516,18.553 M70.516,17.68c0.43,0,0.743-0.182,0.939-0.544c0.197-0.364,0.296-0.864,0.296-1.5
		c0-0.686-0.099-1.181-0.296-1.484c-0.196-0.303-0.51-0.456-0.939-0.456c-0.428,0-0.742,0.152-0.938,0.456s-0.295,0.798-0.295,1.484
		c0,0.636,0.099,1.136,0.295,1.5C69.773,17.498,70.088,17.68,70.516,17.68"/>
	<path clip-path="url(#SVGID_2_)" fill="#FFFFFF" d="M73.436,12.816h2.253c0.207,0,0.405,0.059,0.592,0.175s0.351,0.261,0.493,0.433
		c0.141,0.171,0.254,0.355,0.34,0.552c0.084,0.197,0.126,0.377,0.126,0.541c0,0.109-0.026,0.235-0.074,0.377
		c-0.05,0.142-0.118,0.283-0.202,0.425s-0.18,0.274-0.287,0.396c-0.106,0.121-0.22,0.214-0.34,0.279
		c0.109,0.273,0.229,0.548,0.355,0.824c0.126,0.276,0.246,0.526,0.361,0.75c0.129,0.264,0.261,0.518,0.395,0.761
		c-0.089,0.035-0.187,0.064-0.291,0.089c-0.089,0.025-0.195,0.045-0.32,0.06c-0.124,0.015-0.259,0.021-0.401,0.021
		c-0.109-0.218-0.223-0.452-0.337-0.701c-0.1-0.213-0.206-0.457-0.32-0.73c-0.114-0.274-0.227-0.56-0.336-0.857h-1.044v2.222
		c-0.035,0.005-0.077,0.011-0.127,0.015c-0.04,0.005-0.091,0.007-0.152,0.007h-0.199c-0.152,0-0.315-0.007-0.483-0.022V12.816
		L73.436,12.816z M75.538,15.344c0.08,0,0.161-0.028,0.243-0.086c0.081-0.057,0.156-0.128,0.224-0.216
		c0.066-0.086,0.12-0.177,0.16-0.272c0.04-0.093,0.06-0.178,0.06-0.252c0-0.085-0.022-0.176-0.067-0.272
		c-0.044-0.098-0.1-0.187-0.168-0.27c-0.067-0.082-0.14-0.15-0.22-0.205c-0.079-0.055-0.156-0.083-0.231-0.083h-1.141v1.656H75.538z
		"/>
	<path clip-path="url(#SVGID_2_)" fill="#FFFFFF" d="M79.015,13.688H77.62c-0.016-0.148-0.022-0.291-0.022-0.429v-0.185
		c0-0.054,0.003-0.102,0.007-0.141c0.005-0.044,0.011-0.083,0.016-0.118h3.78c0,0.035,0.003,0.074,0.008,0.118
		c0.005,0.039,0.01,0.087,0.012,0.141c0.002,0.055,0.004,0.116,0.004,0.185c0,0.138-0.007,0.281-0.022,0.429h-1.396v4.752
		c-0.039,0.004-0.086,0.01-0.141,0.014c-0.046,0.005-0.099,0.008-0.161,0.008h-0.197c-0.069,0-0.147-0.002-0.235-0.005
		c-0.087-0.002-0.172-0.008-0.257-0.018V13.688L79.015,13.688z"/>
	<path clip-path="url(#SVGID_2_)" fill="#FFFFFF" d="M82.04,12.816h2.253c0.209,0,0.406,0.059,0.593,0.175s0.352,0.261,0.492,0.433
		c0.142,0.171,0.256,0.355,0.34,0.552c0.085,0.197,0.127,0.377,0.127,0.541c0,0.109-0.024,0.235-0.075,0.377
		c-0.049,0.142-0.117,0.283-0.201,0.425s-0.181,0.274-0.287,0.396c-0.107,0.121-0.22,0.214-0.34,0.279
		c0.11,0.273,0.229,0.548,0.355,0.824c0.127,0.276,0.247,0.526,0.361,0.75c0.13,0.264,0.262,0.518,0.396,0.761
		c-0.09,0.035-0.186,0.064-0.291,0.089c-0.09,0.025-0.197,0.045-0.321,0.06s-0.257,0.021-0.402,0.021
		c-0.109-0.218-0.222-0.452-0.336-0.701c-0.099-0.213-0.206-0.457-0.32-0.73c-0.114-0.274-0.226-0.56-0.335-0.857h-1.045v2.222
		c-0.034,0.005-0.077,0.011-0.127,0.015c-0.039,0.005-0.09,0.007-0.153,0.007h-0.197c-0.153,0-0.315-0.007-0.485-0.022V12.816
		L82.04,12.816z M84.144,15.344c0.08,0,0.16-0.028,0.243-0.086c0.082-0.057,0.156-0.128,0.224-0.216
		c0.066-0.086,0.12-0.177,0.16-0.272c0.04-0.093,0.06-0.178,0.06-0.252c0-0.085-0.023-0.176-0.067-0.272
		c-0.045-0.098-0.1-0.187-0.168-0.27c-0.066-0.082-0.14-0.15-0.22-0.205c-0.08-0.055-0.157-0.083-0.231-0.083h-1.141v1.656H84.144z"
		/>
	<path clip-path="url(#SVGID_2_)" fill="#FFFFFF" d="M86.727,12.816h3.088c0,0.035,0.002,0.075,0.008,0.119
		c0.005,0.04,0.009,0.086,0.012,0.139c0.002,0.052,0.003,0.113,0.003,0.182c0,0.14-0.007,0.284-0.022,0.433h-2.125v1.425h1.977
		c0,0.035,0.003,0.077,0.008,0.127c0.004,0.04,0.008,0.087,0.011,0.142c0.002,0.055,0.003,0.117,0.003,0.187
		c0,0.124-0.007,0.261-0.021,0.41h-1.978v1.596h2.126c0.015,0.148,0.021,0.292,0.021,0.43c0,0.068-0.001,0.13-0.003,0.185
		c-0.003,0.054-0.007,0.101-0.011,0.14c-0.006,0.044-0.009,0.083-0.009,0.118h-3.088V12.816L86.727,12.816z"/>
	<path clip-path="url(#SVGID_2_)" fill="#FFFFFF" d="M92.253,12.764c0.284,0,0.527,0.027,0.731,0.082
		c0.204,0.055,0.376,0.117,0.514,0.187c0.16,0.08,0.294,0.167,0.403,0.261c-0.05,0.075-0.104,0.155-0.164,0.239
		c-0.056,0.069-0.122,0.146-0.201,0.231c-0.079,0.084-0.176,0.167-0.291,0.246c-0.074-0.06-0.159-0.114-0.254-0.165
		c-0.084-0.04-0.188-0.078-0.313-0.115c-0.124-0.037-0.267-0.056-0.426-0.056c-0.292,0-0.51,0.05-0.648,0.149
		s-0.209,0.283-0.209,0.551c0,0.154,0.029,0.279,0.09,0.374c0.06,0.094,0.139,0.167,0.239,0.219c0.1,0.052,0.212,0.092,0.339,0.12
		c0.126,0.028,0.254,0.051,0.384,0.07c0.193,0.03,0.387,0.07,0.578,0.12s0.364,0.131,0.52,0.247c0.153,0.113,0.278,0.274,0.376,0.48
		s0.146,0.483,0.146,0.832c0,0.313-0.045,0.577-0.136,0.791c-0.089,0.214-0.218,0.385-0.387,0.515
		c-0.169,0.129-0.374,0.221-0.616,0.275c-0.24,0.055-0.513,0.082-0.816,0.082c-0.283,0-0.533-0.031-0.75-0.095
		c-0.215-0.065-0.396-0.135-0.541-0.214c-0.168-0.089-0.317-0.195-0.447-0.318c0.05-0.084,0.11-0.167,0.18-0.251
		c0.06-0.07,0.133-0.143,0.221-0.221c0.087-0.077,0.187-0.143,0.302-0.197c0.078,0.084,0.171,0.156,0.276,0.216
		c0.089,0.055,0.196,0.103,0.324,0.145c0.127,0.042,0.271,0.064,0.436,0.064c0.333,0,0.581-0.058,0.747-0.175
		c0.163-0.118,0.245-0.32,0.245-0.609c0-0.169-0.032-0.306-0.097-0.408c-0.064-0.102-0.148-0.183-0.25-0.243
		c-0.103-0.06-0.219-0.104-0.351-0.131s-0.265-0.05-0.399-0.07c-0.189-0.03-0.376-0.071-0.563-0.123
		c-0.187-0.052-0.354-0.133-0.504-0.243c-0.148-0.109-0.27-0.261-0.362-0.451c-0.091-0.193-0.137-0.445-0.137-0.759
		c0-0.303,0.044-0.562,0.13-0.772c0.087-0.212,0.212-0.382,0.373-0.512c0.161-0.13,0.354-0.223,0.574-0.28
		C91.739,12.792,91.985,12.764,92.253,12.764"/>
	<path clip-path="url(#SVGID_2_)" fill="#FFFFFF" d="M96.272,12.764c0.284,0,0.527,0.027,0.731,0.082
		c0.204,0.055,0.375,0.117,0.514,0.187c0.16,0.08,0.294,0.167,0.404,0.261c-0.05,0.075-0.104,0.155-0.164,0.239
		c-0.056,0.069-0.123,0.146-0.202,0.231c-0.079,0.084-0.177,0.167-0.291,0.246c-0.074-0.06-0.159-0.114-0.254-0.165
		c-0.084-0.04-0.188-0.078-0.313-0.115c-0.123-0.037-0.266-0.056-0.425-0.056c-0.293,0-0.509,0.05-0.648,0.149
		s-0.209,0.283-0.209,0.551c0,0.154,0.03,0.279,0.089,0.374c0.061,0.094,0.14,0.167,0.239,0.219s0.213,0.092,0.34,0.12
		c0.127,0.028,0.255,0.051,0.384,0.07c0.194,0.03,0.387,0.07,0.579,0.12c0.19,0.05,0.362,0.131,0.518,0.247
		c0.153,0.113,0.279,0.274,0.376,0.48c0.098,0.207,0.146,0.483,0.146,0.832c0,0.313-0.045,0.577-0.134,0.791
		c-0.089,0.214-0.219,0.385-0.389,0.515c-0.168,0.129-0.374,0.221-0.614,0.275c-0.241,0.055-0.515,0.082-0.817,0.082
		c-0.283,0-0.532-0.031-0.75-0.095c-0.216-0.065-0.397-0.135-0.54-0.214c-0.169-0.089-0.318-0.195-0.447-0.318
		c0.049-0.084,0.109-0.167,0.179-0.251c0.06-0.07,0.133-0.143,0.22-0.221c0.087-0.077,0.188-0.143,0.303-0.197
		c0.079,0.084,0.171,0.156,0.275,0.216c0.089,0.055,0.198,0.103,0.324,0.145c0.127,0.042,0.272,0.064,0.437,0.064
		c0.332,0,0.581-0.058,0.746-0.175c0.164-0.118,0.247-0.32,0.247-0.609c0-0.169-0.034-0.306-0.098-0.408
		c-0.065-0.102-0.148-0.183-0.25-0.243c-0.103-0.06-0.219-0.104-0.351-0.131c-0.133-0.027-0.265-0.05-0.398-0.07
		c-0.189-0.03-0.377-0.071-0.563-0.123c-0.188-0.052-0.354-0.133-0.505-0.243c-0.147-0.109-0.269-0.261-0.36-0.451
		c-0.093-0.193-0.138-0.445-0.138-0.759c0-0.303,0.043-0.562,0.13-0.772c0.087-0.212,0.211-0.382,0.373-0.512
		c0.162-0.13,0.353-0.223,0.573-0.28C95.76,12.792,96.004,12.764,96.272,12.764"/>
	<path clip-path="url(#SVGID_2_)" fill="#FFFFFF" d="M67.901,25.496c-0.165,0.148-0.382,0.262-0.653,0.339
		c-0.271,0.077-0.556,0.115-0.854,0.115c-0.791,0-1.365-0.233-1.724-0.7c-0.358-0.468-0.537-1.193-0.537-2.178
		c0-0.98,0.181-1.7,0.541-2.16c0.361-0.46,0.934-0.689,1.72-0.689c0.298,0,0.582,0.039,0.854,0.116
		c0.271,0.077,0.488,0.189,0.652,0.339c-0.039,0.109-0.092,0.206-0.156,0.291c-0.064,0.084-0.127,0.156-0.187,0.216
		c-0.069,0.069-0.145,0.131-0.224,0.186c-0.08-0.049-0.167-0.094-0.261-0.134c-0.085-0.035-0.185-0.067-0.3-0.097
		c-0.113-0.03-0.24-0.045-0.379-0.045c-0.209,0-0.393,0.035-0.549,0.104s-0.288,0.183-0.396,0.339
		c-0.106,0.157-0.188,0.361-0.242,0.611c-0.054,0.251-0.081,0.558-0.081,0.921s0.027,0.671,0.081,0.925
		c0.055,0.254,0.136,0.462,0.242,0.623c0.107,0.162,0.239,0.278,0.396,0.351s0.34,0.108,0.549,0.108c0.139,0,0.266-0.013,0.379-0.04
		c0.115-0.027,0.215-0.06,0.3-0.095c0.094-0.039,0.181-0.086,0.261-0.141c0.08,0.055,0.154,0.116,0.224,0.187
		c0.06,0.059,0.122,0.132,0.187,0.216S67.861,25.387,67.901,25.496"/>
	<path clip-path="url(#SVGID_2_)" fill="#FFFFFF" d="M70.351,25.95c-0.392,0-0.728-0.067-1.009-0.205
		c-0.28-0.137-0.51-0.331-0.691-0.585s-0.314-0.56-0.398-0.918c-0.085-0.357-0.127-0.76-0.127-1.208
		c0-0.477,0.042-0.892,0.127-1.245c0.084-0.354,0.217-0.646,0.398-0.877c0.182-0.231,0.411-0.403,0.691-0.518
		c0.281-0.115,0.617-0.171,1.009-0.171c0.78,0,1.346,0.229,1.699,0.689c0.352,0.46,0.528,1.167,0.528,2.122
		c0,0.448-0.043,0.851-0.127,1.208c-0.084,0.359-0.217,0.664-0.398,0.918s-0.413,0.449-0.692,0.586
		C71.08,25.883,70.743,25.95,70.351,25.95 M70.351,25.078c0.429,0,0.742-0.182,0.94-0.545c0.195-0.362,0.295-0.862,0.295-1.499
		c0-0.686-0.1-1.181-0.295-1.483c-0.197-0.303-0.512-0.456-0.94-0.456c-0.428,0-0.741,0.152-0.938,0.456
		c-0.197,0.303-0.295,0.797-0.295,1.483c0,0.637,0.098,1.137,0.295,1.499C69.609,24.896,69.923,25.078,70.351,25.078"/>
	<path clip-path="url(#SVGID_2_)" fill="#FFFFFF" d="M74.688,22.199c-0.055-0.145-0.104-0.277-0.146-0.399
		c-0.042-0.122-0.075-0.225-0.1-0.31c-0.03-0.1-0.056-0.188-0.075-0.268h-0.03c0.004,0.094,0.011,0.204,0.015,0.328
		c0.006,0.109,0.009,0.24,0.013,0.391c0.001,0.152,0.003,0.327,0.003,0.526l0.015,3.423c-0.034,0.005-0.076,0.01-0.127,0.016
		c-0.039,0.005-0.09,0.007-0.152,0.007h-0.197c-0.149,0-0.307-0.007-0.47-0.022V20.29c0.129-0.01,0.261-0.016,0.395-0.019
		c0.135-0.002,0.267-0.003,0.396-0.003c0.105,0,0.201,0,0.287,0.003c0.087,0.003,0.165,0.004,0.235,0.004
		c0.075,0.005,0.144,0.007,0.209,0.007l1.38,3.633c0.064,0.169,0.119,0.32,0.164,0.454c0.044,0.135,0.081,0.252,0.112,0.352
		c0.034,0.114,0.062,0.214,0.082,0.298h0.029c-0.005-0.1-0.011-0.214-0.016-0.343c-0.004-0.114-0.008-0.25-0.011-0.402
		c-0.002-0.154-0.003-0.329-0.003-0.522L76.68,20.29c0.084-0.01,0.158-0.016,0.221-0.019c0.062-0.003,0.13-0.004,0.204-0.004
		c0.075,0,0.144,0.001,0.205,0.004c0.063,0.002,0.119,0.006,0.168,0.011c0.056,0.005,0.104,0.007,0.15,0.007v5.602
		c-0.071,0.005-0.15,0.01-0.239,0.016c-0.075,0.004-0.16,0.006-0.258,0.006h-0.316c-0.229,0-0.465-0.006-0.709-0.021L74.688,22.199z
		"/>
	<path clip-path="url(#SVGID_2_)" fill="#FFFFFF" d="M80.371,20.223c0.284,0,0.527,0.027,0.731,0.082
		c0.204,0.054,0.375,0.117,0.514,0.186c0.16,0.08,0.295,0.167,0.404,0.261c-0.05,0.074-0.104,0.154-0.165,0.239
		c-0.055,0.07-0.121,0.146-0.201,0.231c-0.079,0.083-0.177,0.166-0.29,0.247c-0.075-0.061-0.159-0.115-0.255-0.165
		c-0.084-0.04-0.188-0.079-0.313-0.116c-0.123-0.038-0.266-0.056-0.425-0.056c-0.293,0-0.509,0.05-0.648,0.149
		c-0.139,0.1-0.208,0.284-0.208,0.552c0,0.154,0.029,0.279,0.089,0.373c0.06,0.095,0.139,0.168,0.239,0.22
		c0.1,0.052,0.212,0.092,0.339,0.119s0.255,0.051,0.383,0.071c0.195,0.03,0.388,0.069,0.579,0.119s0.363,0.132,0.519,0.247
		c0.154,0.114,0.28,0.274,0.376,0.48c0.098,0.207,0.146,0.483,0.146,0.831c0,0.313-0.045,0.577-0.135,0.791
		c-0.09,0.215-0.218,0.386-0.388,0.515c-0.169,0.13-0.374,0.221-0.615,0.275s-0.514,0.082-0.816,0.082
		c-0.284,0-0.533-0.031-0.751-0.095c-0.216-0.065-0.396-0.136-0.54-0.215c-0.169-0.089-0.318-0.195-0.447-0.317
		c0.049-0.084,0.108-0.169,0.179-0.252c0.06-0.07,0.134-0.144,0.22-0.221c0.087-0.076,0.188-0.144,0.302-0.198
		c0.079,0.085,0.172,0.157,0.276,0.218c0.089,0.055,0.197,0.103,0.324,0.145c0.128,0.044,0.273,0.063,0.438,0.063
		c0.332,0,0.581-0.059,0.745-0.175c0.164-0.118,0.246-0.32,0.246-0.608c0-0.17-0.032-0.307-0.097-0.409
		c-0.064-0.102-0.148-0.183-0.25-0.242c-0.103-0.059-0.219-0.103-0.351-0.13s-0.265-0.052-0.398-0.071
		c-0.189-0.03-0.377-0.071-0.564-0.123c-0.186-0.052-0.354-0.133-0.503-0.242c-0.148-0.11-0.27-0.261-0.361-0.452
		c-0.093-0.192-0.138-0.445-0.138-0.758c0-0.304,0.043-0.562,0.13-0.773c0.088-0.212,0.211-0.382,0.374-0.512
		c0.161-0.129,0.352-0.223,0.573-0.28C79.858,20.251,80.104,20.223,80.371,20.223"/>
	<path clip-path="url(#SVGID_2_)" fill="#FFFFFF" d="M87.003,23.898c0,0.329-0.036,0.62-0.104,0.874
		c-0.07,0.253-0.183,0.469-0.34,0.646c-0.157,0.176-0.362,0.31-0.616,0.398c-0.253,0.09-0.566,0.134-0.939,0.134
		c-0.372,0-0.685-0.044-0.937-0.134c-0.25-0.089-0.454-0.221-0.61-0.396c-0.157-0.173-0.269-0.388-0.337-0.642
		c-0.066-0.254-0.1-0.544-0.1-0.872V20.29c0.153-0.015,0.306-0.022,0.455-0.022c0.07,0,0.136,0,0.197,0.003
		c0.063,0.003,0.116,0.006,0.16,0.011c0.055,0.005,0.104,0.008,0.149,0.008v3.714c0,0.354,0.075,0.621,0.225,0.803
		c0.148,0.181,0.414,0.271,0.797,0.271s0.652-0.091,0.806-0.271c0.154-0.182,0.231-0.448,0.231-0.803V20.29
		c0.164-0.015,0.323-0.022,0.477-0.022c0.071,0,0.136,0.001,0.194,0.004c0.061,0.002,0.112,0.006,0.157,0.011
		c0.05,0.005,0.094,0.007,0.135,0.007V23.898L87.003,23.898z"/>
	<path clip-path="url(#SVGID_2_)" fill="#FFFFFF" d="M88.948,25.033h1.836c0.015,0.147,0.021,0.291,0.021,0.43
		c0,0.068-0.001,0.13-0.003,0.185c-0.003,0.054-0.008,0.102-0.013,0.141c-0.004,0.044-0.007,0.083-0.007,0.118h-2.826V20.29
		c0.164-0.015,0.325-0.022,0.484-0.022c0.074,0,0.144,0,0.205,0.003s0.115,0.006,0.16,0.011c0.055,0.005,0.103,0.008,0.142,0.008
		V25.033z"/>
	<path clip-path="url(#SVGID_2_)" fill="#FFFFFF" d="M91.985,21.147h-1.395c-0.016-0.148-0.023-0.291-0.023-0.429v-0.185
		c0-0.054,0.003-0.101,0.008-0.14c0.004-0.044,0.011-0.083,0.016-0.119h3.78c0,0.035,0.003,0.074,0.008,0.119
		c0.006,0.04,0.009,0.086,0.012,0.14c0.002,0.055,0.003,0.116,0.003,0.185c0,0.138-0.006,0.281-0.022,0.429h-1.394v4.751
		c-0.04,0.005-0.087,0.011-0.142,0.015c-0.046,0.005-0.1,0.008-0.16,0.008h-0.198c-0.069,0-0.148-0.002-0.235-0.004
		c-0.087-0.003-0.172-0.008-0.257-0.019V21.147L91.985,21.147z"/>
	<path clip-path="url(#SVGID_2_)" fill="#FFFFFF" d="M96.194,25.891c-0.039,0.005-0.086,0.01-0.141,0.016
		c-0.046,0.005-0.1,0.007-0.161,0.007h-0.205c-0.159,0-0.32-0.007-0.484-0.022V20.29c0.164-0.015,0.325-0.022,0.484-0.022
		c0.074,0,0.143,0,0.205,0.003c0.062,0.003,0.115,0.006,0.161,0.011c0.055,0.005,0.102,0.008,0.141,0.008V25.891z"/>
	<path clip-path="url(#SVGID_2_)" fill="#FFFFFF" d="M98.382,22.199c-0.055-0.145-0.104-0.277-0.146-0.399
		c-0.042-0.122-0.075-0.225-0.101-0.31c-0.029-0.1-0.055-0.188-0.074-0.268h-0.03c0.005,0.094,0.01,0.204,0.014,0.328
		c0.007,0.109,0.011,0.24,0.013,0.391c0.002,0.152,0.004,0.327,0.004,0.526l0.015,3.423c-0.035,0.005-0.077,0.01-0.127,0.016
		c-0.04,0.005-0.092,0.007-0.152,0.007H97.6c-0.15,0-0.307-0.007-0.47-0.022V20.29c0.129-0.01,0.261-0.016,0.395-0.019
		c0.135-0.002,0.267-0.003,0.396-0.003c0.104,0,0.2,0,0.287,0.003s0.165,0.004,0.235,0.004c0.073,0.005,0.144,0.007,0.208,0.007
		l1.381,3.633c0.063,0.169,0.118,0.32,0.164,0.454c0.045,0.135,0.082,0.252,0.111,0.352c0.035,0.114,0.063,0.214,0.082,0.298h0.029
		c-0.005-0.1-0.01-0.214-0.015-0.343c-0.005-0.114-0.008-0.25-0.012-0.402c-0.003-0.154-0.003-0.329-0.003-0.522l-0.015-3.461
		c0.084-0.01,0.157-0.016,0.22-0.019c0.062-0.003,0.13-0.004,0.204-0.004c0.076,0,0.144,0.001,0.206,0.004
		c0.063,0.002,0.118,0.006,0.168,0.011c0.055,0.005,0.104,0.007,0.149,0.007v5.602c-0.07,0.005-0.149,0.01-0.239,0.016
		c-0.074,0.004-0.16,0.006-0.257,0.006h-0.317c-0.229,0-0.466-0.006-0.709-0.021L98.382,22.199z"/>
	<path clip-path="url(#SVGID_2_)" fill="#FFFFFF" d="M104.172,25.086c0.114,0,0.221-0.002,0.319-0.004
		c0.1-0.003,0.187-0.007,0.261-0.012c0.088-0.004,0.17-0.013,0.245-0.022v-1.611h-0.82c-0.01-0.045-0.02-0.092-0.03-0.141
		c-0.015-0.081-0.022-0.177-0.022-0.292c0-0.114,0.018-0.258,0.053-0.433h1.782v3.252c-0.164,0.024-0.343,0.048-0.537,0.067
		c-0.164,0.016-0.354,0.028-0.57,0.042c-0.217,0.011-0.443,0.018-0.683,0.018c-0.771,0-1.342-0.233-1.712-0.7
		c-0.37-0.468-0.556-1.194-0.556-2.179c0-0.979,0.19-1.699,0.57-2.159c0.381-0.46,0.974-0.69,1.779-0.69
		c0.169,0,0.335,0.014,0.496,0.041c0.162,0.028,0.314,0.065,0.458,0.113c0.146,0.048,0.277,0.104,0.396,0.169
		c0.12,0.065,0.221,0.135,0.307,0.211c-0.04,0.11-0.093,0.208-0.157,0.292c-0.065,0.085-0.126,0.158-0.186,0.217
		c-0.07,0.069-0.145,0.131-0.225,0.187c-0.09-0.065-0.191-0.124-0.305-0.179c-0.101-0.045-0.217-0.087-0.348-0.127
		c-0.132-0.04-0.277-0.059-0.437-0.059c-0.219,0-0.413,0.035-0.581,0.107c-0.17,0.071-0.312,0.186-0.425,0.342
		c-0.115,0.155-0.202,0.36-0.261,0.612c-0.062,0.252-0.091,0.56-0.091,0.921s0.028,0.67,0.086,0.925
		c0.058,0.256,0.142,0.464,0.252,0.625c0.111,0.161,0.245,0.278,0.401,0.353S103.969,25.086,104.172,25.086"/>
	<path clip-path="url(#SVGID_2_)" fill="#FFFFFF" d="M66.404,32.544c0.114,0,0.221-0.001,0.32-0.004
		c0.099-0.002,0.186-0.006,0.259-0.011c0.091-0.005,0.172-0.013,0.246-0.022v-1.611h-0.82c-0.011-0.045-0.021-0.092-0.03-0.142
		c-0.015-0.08-0.021-0.177-0.021-0.292c0-0.113,0.017-0.257,0.052-0.432h1.782v3.252c-0.163,0.024-0.343,0.047-0.537,0.066
		c-0.163,0.015-0.354,0.029-0.57,0.042s-0.444,0.018-0.683,0.018c-0.771,0-1.342-0.233-1.712-0.701
		c-0.371-0.466-0.556-1.192-0.556-2.177c0-0.979,0.191-1.7,0.571-2.16s0.973-0.688,1.778-0.688c0.17,0,0.334,0.013,0.496,0.039
		c0.161,0.028,0.314,0.066,0.459,0.114c0.144,0.048,0.276,0.104,0.396,0.169c0.119,0.066,0.221,0.136,0.305,0.211
		c-0.039,0.11-0.091,0.208-0.156,0.293c-0.064,0.085-0.127,0.157-0.186,0.217c-0.07,0.07-0.145,0.131-0.224,0.188
		c-0.091-0.065-0.192-0.125-0.307-0.18c-0.1-0.045-0.215-0.088-0.347-0.127c-0.132-0.04-0.277-0.059-0.437-0.059
		c-0.219,0-0.412,0.035-0.582,0.107c-0.169,0.07-0.31,0.186-0.425,0.342c-0.114,0.156-0.201,0.359-0.262,0.613
		c-0.059,0.252-0.088,0.559-0.088,0.921s0.027,0.67,0.085,0.925c0.057,0.256,0.142,0.464,0.253,0.625s0.245,0.278,0.4,0.353
		C66.021,32.507,66.202,32.544,66.404,32.544"/>
	<path clip-path="url(#SVGID_2_)" fill="#FFFFFF" d="M69.207,27.733h2.252c0.209,0,0.407,0.058,0.593,0.175
		c0.188,0.118,0.351,0.261,0.492,0.434c0.143,0.17,0.255,0.354,0.34,0.552c0.084,0.196,0.126,0.376,0.126,0.54
		c0,0.109-0.024,0.235-0.074,0.377s-0.116,0.283-0.201,0.426c-0.085,0.141-0.18,0.273-0.286,0.396
		c-0.107,0.121-0.221,0.214-0.34,0.279c0.109,0.273,0.228,0.548,0.354,0.824c0.127,0.275,0.248,0.525,0.361,0.749
		c0.13,0.264,0.262,0.518,0.396,0.761c-0.091,0.035-0.187,0.064-0.291,0.09c-0.089,0.024-0.197,0.045-0.32,0.061
		c-0.125,0.014-0.259,0.021-0.403,0.021c-0.109-0.218-0.222-0.451-0.335-0.7c-0.101-0.214-0.207-0.458-0.321-0.731
		c-0.114-0.272-0.227-0.56-0.336-0.856h-1.044v2.222c-0.035,0.005-0.078,0.01-0.127,0.015c-0.039,0.006-0.091,0.008-0.152,0.008
		h-0.198c-0.154,0-0.315-0.008-0.484-0.022V27.733L69.207,27.733z M71.311,30.262c0.078,0,0.16-0.027,0.242-0.086
		c0.082-0.057,0.156-0.128,0.224-0.217c0.066-0.086,0.12-0.177,0.16-0.271c0.039-0.095,0.06-0.179,0.06-0.254
		c0-0.084-0.022-0.175-0.067-0.271c-0.045-0.098-0.101-0.187-0.167-0.269c-0.068-0.082-0.142-0.15-0.222-0.205
		c-0.079-0.055-0.156-0.082-0.229-0.082h-1.142v1.655H71.311z"/>
	<path clip-path="url(#SVGID_2_)" fill="#FFFFFF" d="M75.878,33.409c-0.392,0-0.729-0.067-1.01-0.205
		c-0.279-0.137-0.511-0.332-0.691-0.586c-0.182-0.253-0.314-0.559-0.398-0.917c-0.084-0.357-0.127-0.762-0.127-1.209
		c0-0.477,0.042-0.892,0.127-1.245c0.084-0.353,0.217-0.645,0.398-0.876c0.181-0.231,0.411-0.404,0.691-0.52
		c0.281-0.113,0.618-0.17,1.01-0.17c0.779,0,1.346,0.229,1.697,0.689c0.353,0.461,0.529,1.167,0.529,2.121
		c0,0.447-0.042,0.852-0.127,1.209c-0.084,0.358-0.217,0.664-0.398,0.917c-0.182,0.254-0.411,0.449-0.692,0.586
		C76.606,33.342,76.271,33.409,75.878,33.409 M75.878,32.537c0.429,0,0.742-0.182,0.938-0.545c0.197-0.362,0.296-0.862,0.296-1.5
		c0-0.686-0.099-1.18-0.296-1.483c-0.196-0.303-0.51-0.455-0.938-0.455s-0.741,0.152-0.939,0.455
		c-0.196,0.304-0.295,0.798-0.295,1.483c0,0.638,0.099,1.138,0.295,1.5C75.137,32.355,75.449,32.537,75.878,32.537"/>
	<path clip-path="url(#SVGID_2_)" fill="#FFFFFF" d="M82.889,31.357c0,0.329-0.036,0.62-0.105,0.873
		c-0.069,0.254-0.182,0.469-0.339,0.646c-0.156,0.177-0.362,0.311-0.616,0.399c-0.253,0.089-0.566,0.134-0.938,0.134
		c-0.373,0-0.686-0.045-0.938-0.134c-0.25-0.09-0.454-0.221-0.61-0.396c-0.157-0.175-0.269-0.389-0.336-0.642
		c-0.067-0.254-0.101-0.545-0.101-0.873v-3.617c0.153-0.015,0.305-0.021,0.455-0.021c0.069,0,0.136,0.001,0.197,0.004
		c0.062,0.002,0.115,0.006,0.16,0.01c0.055,0.006,0.104,0.008,0.149,0.008v3.715c0,0.354,0.075,0.62,0.225,0.802
		c0.148,0.182,0.414,0.272,0.798,0.272c0.382,0,0.651-0.091,0.805-0.272c0.154-0.182,0.231-0.448,0.231-0.802v-3.715
		c0.164-0.015,0.323-0.021,0.477-0.021c0.071,0,0.135,0.001,0.195,0.004c0.06,0.003,0.111,0.006,0.156,0.01
		c0.05,0.006,0.094,0.008,0.135,0.008V31.357L82.889,31.357z"/>
	<path clip-path="url(#SVGID_2_)" fill="#FFFFFF" d="M83.859,27.733h2.335c0.193,0,0.371,0.053,0.533,0.157
		c0.161,0.104,0.302,0.245,0.418,0.425c0.116,0.179,0.207,0.388,0.271,0.626c0.065,0.238,0.097,0.492,0.097,0.762
		c0,0.252-0.031,0.496-0.097,0.73c-0.064,0.232-0.155,0.442-0.271,0.627c-0.116,0.184-0.257,0.33-0.418,0.439
		c-0.162,0.109-0.34,0.163-0.533,0.163h-1.372v1.687c-0.085,0.01-0.16,0.016-0.229,0.02c-0.066,0.002-0.137,0.003-0.212,0.003
		h-0.209c-0.065,0-0.119-0.002-0.164-0.008c-0.055-0.005-0.104-0.01-0.149-0.015V27.733z M85.956,30.792
		c0.084,0,0.161-0.03,0.231-0.091c0.069-0.06,0.128-0.141,0.175-0.243s0.084-0.218,0.107-0.348c0.025-0.13,0.038-0.265,0.038-0.403
		c0-0.15-0.013-0.291-0.038-0.423c-0.023-0.133-0.061-0.249-0.107-0.35c-0.047-0.099-0.105-0.179-0.175-0.239
		c-0.07-0.06-0.147-0.089-0.231-0.089h-1.134v2.185L85.956,30.792L85.956,30.792z"/>
	<path clip-path="url(#SVGID_2_)" fill="#FFFFFF" d="M57.874,15.046c-0.921-1.083-1.994-1.973-3.193-2.67
		C54.35,12.185,54.016,12,53.666,11.84c-1.618-0.75-3.326-1.128-5.077-1.128c-2.061,0-4.011,0.515-5.797,1.529
		c-1.789,1.018-3.184,2.382-4.146,4.057c-0.962,1.674-1.449,3.609-1.449,5.752c0,3.312,1.07,6.072,3.18,8.198
		c2.112,2.131,4.856,3.211,8.156,3.211c1.519,0,3.022-0.314,4.46-0.794c-1.419,6.15-6.491,6.326-11.802,6.024v4.949
		c0,0,16.765,3.585,17.016-13.607c0-0.016,0.001-0.03,0.001-0.047V15.44L57.874,15.046z M48.639,28.706
		c-1.897,0-3.474-0.62-4.688-1.844c-1.213-1.225-1.828-2.81-1.828-4.713c0-1.232,0.28-2.346,0.833-3.307
		c0.552-0.963,1.354-1.748,2.382-2.332c1.027-0.583,2.148-0.879,3.333-0.879c1.007,0,1.988,0.218,2.918,0.648
		c0.607,0.281,1.161,0.651,1.663,1.091c0.267,0.232,0.455,0.478,0.688,0.753v8.219c-0.889,0.878-1.745,1.498-2.546,1.843
		C50.591,28.53,49.664,28.706,48.639,28.706"/>
</g>
</svg>
