<?xml version="1.0" encoding="utf-8"?>
<!-- Generator: Adobe Illustrator 16.0.0, SVG Export Plug-In . SVG Version: 6.00 Build 0)  -->
<!DOCTYPE svg PUBLIC "-//W3C//DTD SVG 1.1//EN" "http://www.w3.org/Graphics/SVG/1.1/DTD/svg11.dtd">
<svg version="1.1" id="Layer_1" xmlns="http://www.w3.org/2000/svg" xmlns:xlink="http://www.w3.org/1999/xlink" x="0px" y="0px"
	 width="267.37px" height="31px" viewBox="229.469 344.739 267.37 31" enable-background="new 229.469 344.739 267.37 31"
	 xml:space="preserve">
<g>
	<g>
		<path fill="#FFFFFF" d="M230.939,349.28c0-2.212,0-2.62-0.029-3.085c-0.029-0.495-0.146-0.728-0.625-0.829
			c-0.116-0.029-0.364-0.044-0.568-0.044c-0.16,0-0.247-0.029-0.247-0.13c0-0.103,0.101-0.131,0.32-0.131
			c0.771,0,1.688,0.043,1.994,0.043c0.495,0,1.601-0.043,2.052-0.043c0.917,0,1.892,0.087,2.678,0.626
			c0.408,0.276,0.99,1.019,0.99,1.994c0,1.077-0.452,2.066-1.921,3.26c1.295,1.63,2.299,2.925,3.158,3.828
			c0.815,0.844,1.412,0.946,1.63,0.989c0.161,0.03,0.292,0.043,0.408,0.043c0.116,0,0.175,0.044,0.175,0.116
			c0,0.117-0.102,0.146-0.277,0.146h-1.382c-0.815,0-1.179-0.073-1.557-0.276c-0.626-0.335-1.179-1.019-1.995-2.14
			c-0.582-0.8-1.251-1.79-1.44-2.009c-0.073-0.087-0.16-0.102-0.262-0.102l-1.266-0.029c-0.073,0-0.117,0.029-0.117,0.117v0.203
			c0,1.354,0,2.503,0.073,3.115c0.043,0.422,0.13,0.742,0.567,0.801c0.219,0.029,0.539,0.058,0.714,0.058
			c0.116,0,0.174,0.044,0.174,0.116c0,0.103-0.102,0.146-0.291,0.146c-0.844,0-1.921-0.043-2.14-0.043
			c-0.276,0-1.193,0.043-1.775,0.043c-0.19,0-0.292-0.043-0.292-0.146c0-0.072,0.058-0.116,0.233-0.116
			c0.218,0,0.393-0.028,0.524-0.058c0.291-0.059,0.364-0.379,0.422-0.801c0.073-0.611,0.073-1.761,0.073-3.1L230.939,349.28
			L230.939,349.28z M232.656,350.43c0,0.16,0.029,0.218,0.131,0.262c0.306,0.102,0.742,0.145,1.106,0.145
			c0.582,0,0.771-0.058,1.033-0.247c0.437-0.32,0.858-0.989,0.858-2.183c0-2.066-1.368-2.664-2.227-2.664
			c-0.364,0-0.626,0.015-0.771,0.059c-0.102,0.029-0.131,0.087-0.131,0.204L232.656,350.43L232.656,350.43z"/>
	</g>
	<g>
		<path fill="#FFFFFF" d="M241.929,355.131c0-0.364,0.262-0.889,0.888-0.889c0.495,0,0.888,0.335,0.888,0.845
			c0,0.509-0.35,0.931-0.902,0.931C242.191,356.019,241.929,355.538,241.929,355.131z"/>
		<path fill="#FFFFFF" d="M247.387,349.28c0-2.212,0-2.62-0.03-3.085c-0.029-0.495-0.145-0.728-0.625-0.829
			c-0.117-0.029-0.364-0.044-0.568-0.044c-0.16,0-0.247-0.029-0.247-0.13c0-0.103,0.102-0.131,0.32-0.131
			c0.771,0,1.688,0.043,2.066,0.043c0.35,0,1.267-0.043,1.833-0.043c0.204,0,0.306,0.029,0.306,0.131c0,0.102-0.087,0.13-0.262,0.13
			c-0.161,0-0.248,0.015-0.422,0.044c-0.394,0.072-0.509,0.32-0.539,0.829c-0.029,0.466-0.029,0.873-0.029,3.085v2.693
			c0,0.625,0.043,1.324,0.043,2.052c0,0.83-0.058,1.761-0.349,2.576c-0.306,0.888-1.077,1.893-2.474,2.751
			c-0.189,0.116-0.421,0.232-0.728,0.379c-0.102,0.058-0.219,0.087-0.292,0.087c-0.058,0-0.116-0.043-0.116-0.116
			c0-0.073,0.073-0.131,0.32-0.262c0.189-0.102,0.407-0.262,0.699-0.553c1.106-1.121,1.092-2.576,1.092-5.429L247.387,349.28
			L247.387,349.28z"/>
		<path fill="#FFFFFF" d="M252.351,355.131c0-0.364,0.262-0.889,0.888-0.889c0.495,0,0.888,0.335,0.888,0.845
			c0,0.509-0.349,0.931-0.903,0.931C252.613,356.019,252.351,355.538,252.351,355.131z"/>
		<path fill="#FFFFFF" d="M264.373,351.841c0,1.397,0,2.489,0.073,3.1c0.043,0.422,0.13,0.742,0.567,0.801
			c0.204,0.029,0.524,0.058,0.728,0.058c0.189,0,0.247,0.044,0.247,0.117c0,0.102-0.102,0.146-0.32,0.146
			c-0.917,0-1.833-0.043-2.212-0.043c-0.379,0-1.295,0.043-1.848,0.043c-0.205,0-0.306-0.029-0.306-0.146
			c0-0.072,0.058-0.117,0.218-0.117c0.218,0,0.393-0.028,0.524-0.058c0.291-0.059,0.364-0.379,0.422-0.801
			c0.073-0.611,0.073-1.703,0.073-3.1v-2.562c0-2.212,0-2.619-0.029-3.085c-0.029-0.495-0.146-0.728-0.626-0.829
			c-0.116-0.029-0.364-0.044-0.567-0.044c-0.146,0-0.248-0.029-0.248-0.116c0-0.117,0.117-0.146,0.334-0.146
			c0.378,0,0.801,0.014,1.179,0.014c0.378,0.015,0.713,0.03,0.916,0.03c0.553,0,3.508,0,3.842-0.015
			c0.276-0.015,0.452-0.015,0.597-0.058c0.088-0.029,0.16-0.087,0.233-0.087c0.058,0,0.101,0.058,0.101,0.13
			c0,0.103-0.073,0.276-0.116,0.655c-0.014,0.146-0.043,1.004-0.073,1.179c-0.014,0.116-0.043,0.204-0.146,0.204
			s-0.131-0.072-0.146-0.233c0-0.115,0-0.349-0.087-0.553c-0.102-0.204-0.408-0.422-0.96-0.437l-2.242-0.043
			c-0.087,0-0.131,0.043-0.131,0.203v3.639c0,0.087,0.014,0.131,0.102,0.131l1.863-0.014c0.248,0,0.452,0,0.655-0.015
			c0.276-0.015,0.48-0.073,0.626-0.262c0.073-0.088,0.102-0.146,0.189-0.146c0.059,0,0.088,0.043,0.088,0.131
			s-0.073,0.451-0.117,0.902c-0.028,0.291-0.058,0.96-0.058,1.063c0,0.13,0,0.276-0.146,0.276c-0.087,0-0.117-0.101-0.117-0.203
			s-0.028-0.277-0.087-0.451c-0.073-0.204-0.292-0.466-0.742-0.524c-0.363-0.043-1.906-0.043-2.154-0.043
			c-0.072,0-0.102,0.029-0.102,0.131L264.373,351.841L264.373,351.841z"/>
		<path fill="#FFFFFF" d="M271.942,349.28c0-2.212,0-2.62-0.029-3.085c-0.029-0.495-0.175-0.742-0.495-0.815
			c-0.16-0.043-0.349-0.058-0.523-0.058c-0.146,0-0.233-0.029-0.233-0.145c0-0.088,0.116-0.117,0.349-0.117
			c0.554,0,1.47,0.043,1.892,0.043c0.364,0,1.223-0.043,1.776-0.043c0.189,0,0.305,0.029,0.305,0.117
			c0,0.116-0.087,0.145-0.232,0.145c-0.146,0-0.262,0.015-0.437,0.044c-0.393,0.072-0.51,0.32-0.539,0.829
			c-0.029,0.466-0.029,0.873-0.029,3.085v2.562c0,1.412,0,2.562,0.058,3.187c0.044,0.394,0.146,0.655,0.583,0.714
			c0.204,0.029,0.524,0.058,0.742,0.058c0.16,0,0.233,0.044,0.233,0.116c0,0.103-0.116,0.146-0.276,0.146
			c-0.96,0-1.877-0.043-2.271-0.043c-0.335,0-1.251,0.043-1.833,0.043c-0.189,0-0.292-0.043-0.292-0.146
			c0-0.072,0.059-0.116,0.233-0.116c0.219,0,0.393-0.028,0.524-0.058c0.291-0.059,0.379-0.306,0.422-0.728
			c0.073-0.611,0.073-1.761,0.073-3.173V349.28L271.942,349.28z"/>
	</g>
	<g>
		<path fill="#FFFFFF" d="M277.168,350.561c0-2.489,1.644-5.705,6.011-5.705c3.624,0,5.879,2.111,5.879,5.443
			s-2.329,5.967-6.025,5.967C278.856,356.266,277.168,353.137,277.168,350.561z M287.021,350.837c0-3.26-1.877-5.283-4.264-5.283
			c-1.673,0-3.581,0.931-3.581,4.556c0,3.027,1.674,5.428,4.469,5.428C284.664,355.538,287.021,355.043,287.021,350.837z"/>
	</g>
	<g>
		<path fill="#FFFFFF" d="M292.249,349.28c0-2.212,0-2.62-0.03-3.085c-0.029-0.495-0.145-0.728-0.625-0.829
			c-0.117-0.029-0.364-0.044-0.568-0.044c-0.16,0-0.247-0.029-0.247-0.13c0-0.103,0.102-0.131,0.32-0.131
			c0.771,0,1.688,0.043,1.994,0.043c0.495,0,1.601-0.043,2.052-0.043c0.917,0,1.892,0.087,2.678,0.626
			c0.408,0.276,0.99,1.019,0.99,1.994c0,1.077-0.452,2.066-1.921,3.26c1.295,1.63,2.299,2.925,3.158,3.828
			c0.815,0.844,1.412,0.946,1.63,0.989c0.161,0.03,0.292,0.043,0.408,0.043s0.175,0.044,0.175,0.116
			c0,0.117-0.102,0.146-0.277,0.146h-1.382c-0.815,0-1.179-0.073-1.558-0.276c-0.626-0.335-1.179-1.019-1.994-2.14
			c-0.582-0.8-1.251-1.79-1.441-2.009c-0.073-0.087-0.16-0.102-0.262-0.102l-1.266-0.029c-0.073,0-0.116,0.029-0.116,0.117v0.203
			c0,1.354,0,2.503,0.073,3.115c0.043,0.422,0.131,0.742,0.567,0.801c0.219,0.029,0.539,0.058,0.713,0.058
			c0.116,0,0.174,0.044,0.174,0.116c0,0.103-0.102,0.146-0.291,0.146c-0.844,0-1.921-0.043-2.141-0.043
			c-0.276,0-1.192,0.043-1.775,0.043c-0.189,0-0.291-0.043-0.291-0.146c0-0.072,0.058-0.116,0.232-0.116
			c0.219,0,0.393-0.028,0.524-0.058c0.291-0.059,0.364-0.379,0.422-0.801c0.073-0.611,0.073-1.761,0.073-3.1V349.28L292.249,349.28z
			 M293.966,350.43c0,0.16,0.028,0.218,0.13,0.262c0.306,0.102,0.742,0.145,1.106,0.145c0.582,0,0.771-0.058,1.033-0.247
			c0.437-0.32,0.859-0.989,0.859-2.183c0-2.066-1.368-2.664-2.227-2.664c-0.363,0-0.626,0.015-0.771,0.059
			c-0.102,0.029-0.13,0.087-0.13,0.204V350.43z"/>
		<path fill="#FFFFFF" d="M303.601,349.28c0-2.212,0-2.62-0.029-3.085c-0.029-0.495-0.146-0.728-0.625-0.829
			c-0.117-0.029-0.364-0.044-0.568-0.044c-0.16,0-0.247-0.029-0.247-0.13c0-0.103,0.102-0.131,0.32-0.131
			c0.393,0,0.815,0.014,1.179,0.014c0.379,0.015,0.713,0.029,0.917,0.029c0.466,0,3.363,0,3.639-0.015
			c0.276-0.029,0.509-0.058,0.626-0.087c0.073-0.014,0.16-0.058,0.233-0.058c0.073,0,0.087,0.058,0.087,0.13
			c0,0.103-0.073,0.276-0.117,0.946c-0.014,0.146-0.043,0.786-0.073,0.96c-0.014,0.073-0.043,0.16-0.146,0.16
			c-0.102,0-0.131-0.073-0.131-0.203c0-0.102-0.015-0.35-0.087-0.524c-0.102-0.262-0.248-0.437-0.975-0.524
			c-0.248-0.029-1.776-0.058-2.067-0.058c-0.073,0-0.102,0.043-0.102,0.145v3.682c0,0.103,0.015,0.16,0.102,0.16
			c0.321,0,1.994,0,2.329-0.028c0.349-0.029,0.568-0.073,0.699-0.219c0.102-0.116,0.16-0.189,0.233-0.189
			c0.059,0,0.102,0.029,0.102,0.116c0,0.088-0.058,0.32-0.116,1.063c-0.015,0.292-0.058,0.874-0.058,0.975
			c0,0.116,0,0.277-0.131,0.277c-0.102,0-0.13-0.059-0.13-0.131c-0.015-0.146-0.015-0.334-0.058-0.524
			c-0.073-0.291-0.277-0.509-0.815-0.567c-0.276-0.029-1.717-0.043-2.067-0.043c-0.073,0-0.087,0.058-0.087,0.146v1.149
			c0,0.495-0.015,1.834,0,2.256c0.028,1.004,0.262,1.223,1.747,1.223c0.377,0,0.989,0,1.368-0.174
			c0.379-0.174,0.553-0.48,0.655-1.077c0.029-0.16,0.058-0.218,0.16-0.218c0.116,0,0.116,0.116,0.116,0.262
			c0,0.334-0.116,1.324-0.189,1.615c-0.102,0.379-0.233,0.379-0.786,0.379c-1.091,0-1.893-0.029-2.518-0.043
			c-0.626-0.029-1.077-0.043-1.514-0.043c-0.16,0-0.48,0-0.829,0.014c-0.335,0-0.714,0.029-1.005,0.029
			c-0.189,0-0.291-0.043-0.291-0.146c0-0.072,0.059-0.116,0.233-0.116c0.218,0,0.392-0.028,0.524-0.058
			c0.291-0.059,0.363-0.378,0.422-0.8c0.072-0.611,0.072-1.761,0.072-3.1L303.601,349.28L303.601,349.28z"/>
		<path fill="#FFFFFF" d="M332.305,354.68c-1.426-1.252-1.804-2.882-1.804-4.293c0-0.99,0.305-2.707,1.702-3.988
			c1.048-0.961,2.431-1.543,4.6-1.543c0.901,0,1.44,0.059,2.109,0.146c0.552,0.073,1.019,0.204,1.456,0.247
			c0.161,0.015,0.218,0.088,0.218,0.175c0,0.117-0.043,0.291-0.072,0.801c-0.03,0.48-0.015,1.28-0.044,1.571
			c-0.014,0.219-0.043,0.335-0.175,0.335c-0.115,0-0.144-0.116-0.144-0.321c-0.015-0.451-0.205-0.96-0.568-1.338
			c-0.48-0.509-1.616-0.902-2.955-0.902c-1.267,0-2.096,0.32-2.736,0.902c-1.062,0.975-1.338,2.358-1.338,3.769
			c0,3.463,2.634,5.182,4.583,5.182c1.295,0,2.082-0.146,2.664-0.815c0.247-0.277,0.437-0.699,0.494-0.96
			c0.045-0.233,0.074-0.292,0.189-0.292c0.102,0,0.132,0.102,0.132,0.218c0,0.175-0.175,1.441-0.321,1.936
			c-0.072,0.247-0.131,0.32-0.377,0.422c-0.583,0.233-1.688,0.334-2.62,0.334C335.304,356.266,333.63,355.829,332.305,354.68z"/>
		<path fill="#FFFFFF" d="M342.508,350.561c0-2.489,1.643-5.705,6.011-5.705c3.624,0,5.879,2.111,5.879,5.443
			s-2.329,5.967-6.024,5.967C344.197,356.266,342.508,353.137,342.508,350.561z M352.361,350.837c0-3.26-1.877-5.283-4.264-5.283
			c-1.673,0-3.58,0.931-3.58,4.556c0,3.027,1.674,5.428,4.468,5.428C350.003,355.538,352.361,355.043,352.361,350.837z"/>
		<path fill="#FFFFFF" d="M358.417,345.118c0.043-0.247,0.131-0.379,0.248-0.379c0.115,0,0.203,0.073,0.392,0.452l3.974,8.208
			l3.958-8.31c0.117-0.233,0.19-0.35,0.321-0.35s0.219,0.146,0.263,0.452l1.323,8.994c0.131,0.917,0.276,1.339,0.714,1.471
			c0.422,0.13,0.713,0.145,0.901,0.145c0.132,0,0.234,0.015,0.234,0.102c0,0.117-0.176,0.16-0.379,0.16
			c-0.365,0-2.372-0.043-2.955-0.087c-0.335-0.029-0.422-0.073-0.422-0.161c0-0.073,0.059-0.116,0.16-0.16
			c0.088-0.029,0.131-0.218,0.073-0.626l-0.873-6.403h-0.059l-3.173,6.607c-0.335,0.684-0.407,0.815-0.538,0.815
			s-0.276-0.292-0.509-0.728c-0.351-0.669-1.5-2.896-1.674-3.303c-0.132-0.306-1.005-2.139-1.514-3.231h-0.059l-0.756,5.792
			c-0.03,0.262-0.043,0.451-0.043,0.684c0,0.277,0.189,0.408,0.436,0.466c0.263,0.059,0.466,0.073,0.611,0.073
			c0.117,0,0.218,0.029,0.218,0.102c0,0.131-0.13,0.16-0.349,0.16c-0.611,0-1.266-0.043-1.528-0.043
			c-0.276,0-0.975,0.043-1.441,0.043c-0.146,0-0.263-0.029-0.263-0.16c0-0.073,0.087-0.102,0.233-0.102c0.117,0,0.219,0,0.437-0.043
			c0.407-0.087,0.524-0.655,0.597-1.149L358.417,345.118z"/>
		<path fill="#FFFFFF" d="M373.41,349.28c0-2.212,0-2.62-0.03-3.085c-0.028-0.495-0.144-0.728-0.624-0.829
			c-0.118-0.029-0.364-0.044-0.569-0.044c-0.159,0-0.247-0.029-0.247-0.13c0-0.103,0.103-0.131,0.32-0.131
			c0.772,0,1.688,0.043,2.096,0.043c0.598,0,1.44-0.043,2.11-0.043c1.819,0,2.475,0.611,2.708,0.829
			c0.319,0.306,0.727,0.961,0.727,1.732c0,2.067-1.513,3.521-3.58,3.521c-0.072,0-0.232,0-0.305-0.014
			c-0.073-0.015-0.174-0.03-0.174-0.131c0-0.116,0.101-0.161,0.407-0.161c0.813,0,1.949-0.917,1.949-2.4
			c0-0.48-0.043-1.456-0.858-2.184c-0.523-0.48-1.121-0.567-1.455-0.567c-0.22,0-0.438,0.014-0.568,0.058
			c-0.073,0.029-0.117,0.117-0.117,0.276v5.821c0,1.34,0,2.489,0.074,3.115c0.043,0.407,0.131,0.727,0.568,0.786
			c0.203,0.029,0.522,0.058,0.742,0.058c0.158,0,0.232,0.044,0.232,0.117c0,0.102-0.117,0.146-0.276,0.146
			c-0.961,0-1.877-0.043-2.256-0.043c-0.335,0-1.252,0.043-1.835,0.043c-0.189,0-0.289-0.043-0.289-0.146
			c0-0.072,0.057-0.117,0.232-0.117c0.218,0,0.392-0.028,0.523-0.058c0.291-0.059,0.364-0.379,0.421-0.801
			c0.074-0.611,0.074-1.761,0.074-3.1L373.41,349.28L373.41,349.28z"/>
		<path fill="#FFFFFF" d="M383.177,352.263c-0.072,0-0.103,0.029-0.131,0.117l-0.786,2.081c-0.146,0.363-0.218,0.713-0.218,0.888
			c0,0.262,0.131,0.451,0.582,0.451h0.218c0.176,0,0.22,0.03,0.22,0.117c0,0.116-0.088,0.146-0.248,0.146
			c-0.466,0-1.092-0.043-1.543-0.043c-0.159,0-0.96,0.043-1.717,0.043c-0.189,0-0.276-0.029-0.276-0.146
			c0-0.087,0.058-0.117,0.174-0.117c0.131,0,0.335-0.014,0.452-0.028c0.669-0.088,0.945-0.582,1.236-1.31l3.653-9.14
			c0.174-0.421,0.262-0.582,0.407-0.582c0.131,0,0.219,0.132,0.363,0.466c0.35,0.8,2.678,6.738,3.609,8.951
			c0.554,1.31,0.977,1.514,1.281,1.586c0.218,0.043,0.437,0.058,0.611,0.058c0.115,0,0.189,0.015,0.189,0.117
			c0,0.116-0.131,0.146-0.67,0.146c-0.524,0-1.586,0-2.751-0.029c-0.262-0.014-0.436-0.014-0.436-0.117
			c0-0.087,0.058-0.116,0.203-0.13c0.102-0.03,0.205-0.16,0.131-0.335l-1.165-3.085c-0.028-0.073-0.071-0.102-0.144-0.102
			L383.177,352.263L383.177,352.263z M386.146,351.536c0.072,0,0.087-0.043,0.072-0.087l-1.31-3.594
			c-0.015-0.059-0.029-0.132-0.073-0.132s-0.073,0.073-0.087,0.132l-1.34,3.58c-0.014,0.058,0,0.102,0.059,0.102L386.146,351.536
			L386.146,351.536z"/>
		<path fill="#FFFFFF" d="M393.948,354.083c0.029,1.135,0.219,1.514,0.51,1.616c0.247,0.087,0.523,0.101,0.757,0.101
			c0.16,0,0.247,0.03,0.247,0.117c0,0.116-0.131,0.146-0.335,0.146c-0.946,0-1.527-0.043-1.805-0.043
			c-0.131,0-0.815,0.043-1.572,0.043c-0.189,0-0.321-0.014-0.321-0.146c0-0.087,0.088-0.117,0.233-0.117
			c0.189,0,0.452-0.014,0.655-0.073c0.378-0.116,0.438-0.538,0.452-1.804l0.13-8.616c0-0.292,0.044-0.495,0.19-0.495
			c0.158,0,0.29,0.189,0.537,0.452c0.174,0.189,2.387,2.561,4.512,4.671c0.989,0.99,2.955,3.085,3.201,3.318h0.074l-0.146-6.535
			c-0.015-0.888-0.146-1.165-0.495-1.31c-0.219-0.088-0.567-0.088-0.771-0.088c-0.174,0-0.233-0.043-0.233-0.13
			c0-0.117,0.161-0.131,0.379-0.131c0.757,0,1.456,0.043,1.761,0.043c0.16,0,0.714-0.043,1.427-0.043
			c0.189,0,0.334,0.014,0.334,0.131c0,0.087-0.087,0.13-0.262,0.13c-0.146,0-0.261,0-0.436,0.044
			c-0.408,0.116-0.524,0.421-0.539,1.237l-0.16,9.183c0,0.32-0.058,0.451-0.189,0.451c-0.16,0-0.334-0.16-0.495-0.321
			c-0.916-0.873-2.779-2.779-4.294-4.279c-1.586-1.571-3.201-3.391-3.463-3.667h-0.043L393.948,354.083z"/>
		<path fill="#FFFFFF" d="M408.912,352.292c0-0.786-0.146-1.105-0.335-1.527c-0.103-0.233-2.052-3.436-2.562-4.192
			c-0.363-0.539-0.728-0.903-1.004-1.063c-0.189-0.102-0.437-0.189-0.611-0.189c-0.117,0-0.22-0.029-0.22-0.13
			c0-0.087,0.103-0.131,0.276-0.131c0.263,0,1.354,0.043,1.835,0.043c0.305,0,0.902-0.043,1.558-0.043
			c0.145,0,0.218,0.043,0.218,0.131c0,0.087-0.102,0.102-0.319,0.159c-0.131,0.03-0.205,0.146-0.205,0.262
			c0,0.117,0.074,0.291,0.175,0.495c0.204,0.437,2.241,3.944,2.474,4.352c0.146-0.349,1.98-3.551,2.184-4.002
			c0.146-0.321,0.204-0.568,0.204-0.757c0-0.146-0.059-0.306-0.306-0.364c-0.132-0.029-0.262-0.058-0.262-0.145
			c0-0.102,0.073-0.131,0.247-0.131c0.481,0,0.947,0.043,1.367,0.043c0.322,0,1.281-0.043,1.559-0.043
			c0.16,0,0.262,0.029,0.262,0.116c0,0.102-0.116,0.145-0.276,0.145c-0.146,0-0.422,0.059-0.641,0.175
			c-0.305,0.146-0.465,0.32-0.785,0.713c-0.48,0.582-2.518,4.002-2.779,4.627c-0.219,0.524-0.219,0.976-0.219,1.456v1.194
			c0,0.233,0,0.844,0.043,1.455c0.029,0.422,0.16,0.742,0.598,0.801c0.203,0.029,0.523,0.058,0.728,0.058
			c0.16,0,0.233,0.044,0.233,0.116c0,0.102-0.118,0.146-0.306,0.146c-0.917,0-1.834-0.043-2.228-0.043
			c-0.364,0-1.28,0.043-1.819,0.043c-0.203,0-0.32-0.029-0.32-0.146c0-0.072,0.073-0.116,0.232-0.116
			c0.205,0,0.379-0.029,0.51-0.058c0.291-0.059,0.422-0.379,0.452-0.801c0.043-0.611,0.043-1.222,0.043-1.455V352.292
			L408.912,352.292z"/>
	</g>
	<g>
		<path fill="#F6921E" d="M318.878,345.807h1.952v3.998h4.019v1.78h-4.019v4.02h-1.952v-4.02h-3.998v-1.78h3.998V345.807
			L318.878,345.807z"/>
	</g>
	<g>
		<path fill="#FFFFFF" d="M319.424,364.651h0.787v8.717h-0.787V364.651z"/>
		<path fill="#FFFFFF" d="M323.501,373.368h-0.729v-4.761c0-0.264-0.02-0.699-0.06-1.303h0.753c0.023,0.344,0.036,0.66,0.036,0.947
			c0.453-0.758,1.107-1.137,1.959-1.137c0.691,0,1.216,0.215,1.576,0.646c0.359,0.431,0.54,1.046,0.54,1.848v3.761h-0.73v-3.885
			c0-0.54-0.14-0.959-0.42-1.256c-0.28-0.296-0.667-0.442-1.161-0.442c-0.557,0-0.991,0.191-1.303,0.579
			c-0.309,0.387-0.462,0.885-0.462,1.492L323.501,373.368L323.501,373.368z"/>
		<path fill="#FFFFFF" d="M329.127,367.305h1.232v-1.328c0-0.477,0.12-0.841,0.361-1.088c0.245-0.249,0.612-0.373,1.101-0.373
			c0.222,0,0.451,0.044,0.688,0.136v0.586c-0.158-0.035-0.317-0.054-0.474-0.054c-0.371,0-0.623,0.084-0.752,0.249
			c-0.13,0.162-0.195,0.425-0.195,0.789v1.083h1.421v0.67h-1.421v5.394h-0.729v-5.394h-1.232V367.305L329.127,367.305z"/>
		<path fill="#FFFFFF" d="M333.707,370.337c0-0.963,0.26-1.741,0.782-2.334c0.526-0.592,1.21-0.888,2.055-0.888
			c0.904,0,1.609,0.31,2.114,0.929c0.509,0.617,0.765,1.381,0.765,2.293c0,0.967-0.267,1.747-0.799,2.34
			c-0.533,0.587-1.227,0.882-2.08,0.882c-0.861,0-1.549-0.312-2.067-0.936C333.963,371.999,333.707,371.237,333.707,370.337z
			 M334.495,370.337c0,0.687,0.19,1.286,0.568,1.794c0.379,0.505,0.88,0.759,1.504,0.759c0.676,0,1.189-0.264,1.541-0.788
			c0.351-0.525,0.527-1.113,0.527-1.765c0-0.731-0.189-1.339-0.568-1.824c-0.376-0.486-0.876-0.728-1.504-0.728
			c-0.652,0-1.159,0.252-1.523,0.757C334.676,369.048,334.495,369.646,334.495,370.337z"/>
		<path fill="#FFFFFF" d="M343.99,367.115l0.005,0.687c-0.169-0.012-0.324-0.017-0.463-0.017c-0.518,0-0.92,0.174-1.205,0.525
			c-0.281,0.352-0.422,0.832-0.422,1.439v3.618h-0.729v-4.761c0-0.461-0.02-0.896-0.058-1.303h0.752
			c0.024,0.344,0.035,0.66,0.035,0.947c0.158-0.402,0.361-0.693,0.61-0.869c0.253-0.179,0.583-0.268,0.99-0.268
			C343.721,367.115,343.883,367.115,343.99,367.115z"/>
		<path fill="#FFFFFF" d="M346.224,373.368h-0.729v-4.761c0-0.264-0.02-0.699-0.06-1.303h0.752c0.023,0.344,0.036,0.66,0.036,0.947
			c0.45-0.758,1.105-1.137,1.966-1.137c0.482,0,0.901,0.139,1.255,0.414c0.356,0.273,0.583,0.578,0.681,0.912
			c0.545-0.884,1.254-1.326,2.127-1.326c0.682,0,1.205,0.212,1.569,0.633c0.367,0.424,0.552,1.044,0.552,1.86v3.761h-0.729v-3.885
			c0-0.54-0.141-0.959-0.421-1.256c-0.28-0.296-0.667-0.442-1.16-0.442c-0.559,0-0.992,0.194-1.304,0.585
			c-0.308,0.388-0.462,0.882-0.462,1.48v3.518h-0.729v-3.885c0-0.54-0.139-0.959-0.42-1.255c-0.28-0.297-0.667-0.443-1.161-0.443
			c-0.557,0-0.992,0.194-1.303,0.585c-0.309,0.388-0.462,0.888-0.462,1.5L346.224,373.368L346.224,373.368z"/>
		<path fill="#FFFFFF" d="M356.311,368.821c0.072-0.578,0.296-1.007,0.676-1.285c0.382-0.281,0.915-0.421,1.599-0.421
			c0.651,0,1.17,0.156,1.558,0.469c0.388,0.308,0.58,0.826,0.58,1.557v2.939c0,0.182,0.021,0.61,0.06,1.289h-0.753
			c-0.015-0.311-0.023-0.622-0.023-0.935c-0.083,0.261-0.31,0.513-0.681,0.758c-0.366,0.244-0.8,0.367-1.296,0.367
			c-0.58,0-1.056-0.17-1.427-0.509c-0.367-0.343-0.551-0.806-0.551-1.387c0-0.556,0.231-1.031,0.693-1.427
			c0.462-0.394,1.299-0.592,2.51-0.592h0.741v-0.586c0-0.412-0.117-0.725-0.35-0.942c-0.232-0.221-0.588-0.33-1.066-0.33
			c-0.466,0-0.819,0.084-1.06,0.254c-0.236,0.165-0.377,0.425-0.421,0.781L356.311,368.821L356.311,368.821z M359.995,370.313h-0.35
			c-1.124,0-1.875,0.119-2.25,0.355c-0.371,0.231-0.556,0.575-0.556,1.03c0,0.363,0.119,0.653,0.361,0.87
			c0.246,0.215,0.577,0.32,0.995,0.32c0.577,0,1.021-0.18,1.333-0.539c0.313-0.364,0.468-0.88,0.468-1.552V370.313z"/>
		<path fill="#FFFFFF" d="M362.247,367.975v-0.67h1.232v-1.298l0.729-0.313v1.611h1.42v0.67h-1.42v4.016
			c0,0.301,0.07,0.524,0.213,0.674c0.145,0.15,0.364,0.226,0.656,0.226c0.226,0,0.425-0.024,0.598-0.072v0.635
			c-0.192,0.071-0.429,0.106-0.71,0.106c-0.53,0-0.909-0.11-1.145-0.332c-0.228-0.22-0.342-0.611-0.342-1.173v-4.079H362.247
			L362.247,367.975z"/>
		<path fill="#FFFFFF" d="M367.234,364.598h0.847v0.906h-0.847V364.598z M367.294,367.305h0.729v6.063h-0.729V367.305z"/>
		<path fill="#FFFFFF" d="M369.835,370.337c0-0.963,0.261-1.741,0.782-2.334c0.525-0.592,1.211-0.888,2.055-0.888
			c0.904,0,1.608,0.31,2.114,0.929c0.51,0.617,0.765,1.381,0.765,2.293c0,0.967-0.267,1.747-0.799,2.34
			c-0.533,0.587-1.227,0.882-2.08,0.882c-0.86,0-1.549-0.312-2.067-0.936C370.092,371.999,369.835,371.237,369.835,370.337z
			 M370.623,370.337c0,0.687,0.189,1.286,0.568,1.794c0.38,0.505,0.88,0.759,1.504,0.759c0.677,0,1.189-0.264,1.541-0.788
			c0.351-0.525,0.526-1.113,0.526-1.765c0-0.731-0.189-1.339-0.568-1.824c-0.376-0.486-0.876-0.728-1.504-0.728
			c-0.652,0-1.159,0.252-1.522,0.757C370.804,369.048,370.623,369.646,370.623,370.337z"/>
		<path fill="#FFFFFF" d="M378.033,373.368h-0.729v-4.761c0-0.264-0.021-0.699-0.06-1.303h0.753c0.023,0.344,0.035,0.66,0.035,0.947
			c0.454-0.758,1.107-1.137,1.961-1.137c0.69,0,1.215,0.215,1.574,0.646c0.358,0.431,0.539,1.046,0.539,1.848v3.761h-0.729v-3.885
			c0-0.54-0.141-0.959-0.421-1.256c-0.28-0.296-0.667-0.442-1.16-0.442c-0.557,0-0.991,0.191-1.304,0.579
			c-0.308,0.387-0.462,0.885-0.462,1.492L378.033,373.368L378.033,373.368z"/>
		<path fill="#FFFFFF" d="M387.24,364.651h6.474v0.728h-2.843v7.99h-0.788v-7.99h-2.844L387.24,364.651L387.24,364.651z"/>
		<path fill="#FFFFFF" d="M395.479,370.497c0.004,0.71,0.187,1.288,0.551,1.729c0.367,0.443,0.896,0.664,1.587,0.664
			c0.439,0,0.821-0.144,1.149-0.433c0.328-0.291,0.524-0.62,0.592-0.983h0.788c-0.182,0.703-0.505,1.227-0.971,1.57
			c-0.463,0.344-1.055,0.515-1.777,0.515c-0.849,0-1.513-0.296-1.989-0.887c-0.479-0.598-0.718-1.375-0.718-2.335
			c0-0.94,0.25-1.712,0.752-2.315c0.506-0.604,1.17-0.906,1.99-0.906c0.92,0,1.613,0.297,2.079,0.888
			c0.47,0.589,0.705,1.42,0.705,2.494H395.479L395.479,370.497z M395.504,369.827h3.926c-0.044-0.619-0.236-1.115-0.581-1.486
			c-0.339-0.372-0.805-0.556-1.396-0.556c-0.576,0-1.033,0.196-1.369,0.592C395.752,368.771,395.558,369.255,395.504,369.827z"/>
		<path fill="#FFFFFF" d="M405.945,371.474h0.788c-0.056,0.616-0.287,1.118-0.693,1.505c-0.403,0.388-0.956,0.58-1.658,0.58
			c-0.837,0-1.496-0.296-1.979-0.895c-0.481-0.601-0.722-1.375-0.722-2.327c0-0.929,0.245-1.695,0.734-2.304
			c0.492-0.611,1.156-0.918,1.989-0.918c0.684,0,1.242,0.202,1.676,0.604c0.435,0.401,0.651,0.896,0.651,1.48h-0.787
			c-0.012-0.423-0.154-0.765-0.427-1.025c-0.268-0.26-0.672-0.39-1.214-0.39c-0.576,0-1.026,0.252-1.35,0.757
			c-0.324,0.506-0.486,1.104-0.486,1.795c0,0.718,0.17,1.325,0.509,1.819c0.345,0.488,0.804,0.733,1.38,0.733
			c0.466,0,0.844-0.146,1.131-0.437C405.781,372.156,405.934,371.83,405.945,371.474z"/>
		<path fill="#FFFFFF" d="M408.457,364.651h0.729v3.601c0.424-0.758,1.076-1.137,1.962-1.137c0.675,0,1.195,0.206,1.563,0.621
			c0.367,0.411,0.552,1.035,0.552,1.872v3.76h-0.729v-3.754c0-0.627-0.142-1.089-0.427-1.386c-0.284-0.297-0.669-0.443-1.155-0.443
			c-0.557,0-0.99,0.192-1.303,0.58c-0.308,0.387-0.463,0.885-0.463,1.492v3.512h-0.729V364.651z"/>
		<path fill="#FFFFFF" d="M416.223,373.368h-0.729v-4.761c0-0.264-0.02-0.699-0.059-1.303h0.752c0.023,0.344,0.035,0.66,0.035,0.947
			c0.454-0.758,1.108-1.137,1.961-1.137c0.691,0,1.216,0.215,1.575,0.646c0.358,0.431,0.539,1.046,0.539,1.848v3.761h-0.729v-3.885
			c0-0.54-0.141-0.959-0.421-1.256c-0.28-0.296-0.667-0.442-1.16-0.442c-0.557,0-0.992,0.191-1.305,0.579
			c-0.307,0.387-0.461,0.885-0.461,1.492V373.368L416.223,373.368z"/>
		<path fill="#FFFFFF" d="M422.101,370.337c0-0.963,0.26-1.741,0.781-2.334c0.526-0.592,1.211-0.888,2.055-0.888
			c0.904,0,1.609,0.31,2.114,0.929c0.51,0.617,0.765,1.381,0.765,2.293c0,0.967-0.266,1.747-0.799,2.34
			c-0.533,0.587-1.227,0.882-2.08,0.882c-0.86,0-1.549-0.312-2.066-0.936C422.356,371.999,422.101,371.237,422.101,370.337z
			 M422.889,370.337c0,0.687,0.189,1.286,0.567,1.794c0.38,0.505,0.881,0.759,1.505,0.759c0.676,0,1.189-0.264,1.54-0.788
			c0.352-0.525,0.527-1.113,0.527-1.765c0-0.731-0.189-1.339-0.568-1.824c-0.376-0.486-0.877-0.728-1.505-0.728
			c-0.651,0-1.159,0.252-1.522,0.757C423.069,369.048,422.889,369.646,422.889,370.337z"/>
		<path fill="#FFFFFF" d="M429.582,373.368v-8.717h0.729v8.717H429.582z"/>
		<path fill="#FFFFFF" d="M432.123,370.337c0-0.963,0.26-1.741,0.782-2.334c0.525-0.592,1.211-0.888,2.055-0.888
			c0.904,0,1.608,0.31,2.114,0.929c0.51,0.617,0.765,1.381,0.765,2.293c0,0.967-0.267,1.747-0.8,2.34
			c-0.533,0.587-1.227,0.882-2.079,0.882c-0.861,0-1.549-0.312-2.067-0.936C432.38,371.999,432.123,371.237,432.123,370.337z
			 M432.912,370.337c0,0.687,0.189,1.286,0.567,1.794c0.381,0.505,0.88,0.759,1.505,0.759c0.676,0,1.188-0.264,1.54-0.788
			c0.352-0.525,0.526-1.113,0.526-1.765c0-0.731-0.188-1.339-0.568-1.824c-0.375-0.486-0.876-0.728-1.504-0.728
			c-0.652,0-1.159,0.252-1.522,0.757C433.092,369.048,432.912,369.646,432.912,370.337z"/>
		<path fill="#FFFFFF" d="M439.433,374.128h0.799c0,0.275,0.16,0.503,0.48,0.68c0.323,0.175,0.736,0.263,1.237,0.263
			c0.467,0,0.887-0.152,1.262-0.456c0.38-0.305,0.569-0.761,0.569-1.37v-1.041c-0.174,0.324-0.438,0.595-0.794,0.811
			c-0.352,0.219-0.751,0.325-1.201,0.325c-0.838,0-1.483-0.275-1.938-0.828c-0.451-0.553-0.675-1.305-0.675-2.258
			s0.233-1.716,0.699-2.285c0.466-0.568,1.097-0.853,1.895-0.853c0.841,0,1.512,0.379,2.014,1.137c0-0.327,0.013-0.643,0.037-0.947
			h0.751c-0.039,0.58-0.06,1.021-0.06,1.319v4.225v0.408c0,0.789-0.242,1.402-0.729,1.836c-0.486,0.431-1.122,0.646-1.907,0.646
			c-0.79,0-1.394-0.148-1.813-0.444C439.642,374.997,439.433,374.609,439.433,374.128z M443.229,368.472
			c-0.367-0.458-0.832-0.687-1.392-0.687c-0.573,0-1.029,0.241-1.369,0.728c-0.34,0.485-0.51,1.059-0.51,1.719
			c0,0.701,0.175,1.284,0.521,1.747c0.352,0.462,0.819,0.693,1.403,0.693c0.573,0,1.032-0.227,1.374-0.677
			c0.348-0.454,0.521-1.055,0.521-1.807C443.779,369.501,443.597,368.93,443.229,368.472z"/>
		<path fill="#FFFFFF" d="M445.765,367.305h0.888l2.05,5.075l2.055-5.075h0.788l-3.375,8.434h-0.801l0.931-2.339L445.765,367.305z"
			/>
	</g>
	<g>
		<path fill="#F6921E" d="M456.682,369.958h2.653v-2.653h0.729v2.653h2.654v0.729h-2.654v2.652h-0.729v-2.652h-2.653V369.958z"/>
	</g>
	<g>
		<path fill="#F6921E" d="M469.037,373.368h-0.729v-4.761c0-0.264-0.021-0.699-0.06-1.303h0.752c0.023,0.344,0.036,0.66,0.036,0.947
			c0.449-0.758,1.105-1.137,1.966-1.137c0.482,0,0.9,0.139,1.256,0.414c0.355,0.273,0.583,0.578,0.681,0.912
			c0.546-0.884,1.254-1.326,2.127-1.326c0.683,0,1.206,0.212,1.569,0.633c0.367,0.424,0.552,1.044,0.552,1.86v3.761h-0.729v-3.885
			c0-0.54-0.14-0.959-0.421-1.256c-0.279-0.296-0.667-0.442-1.161-0.442c-0.557,0-0.99,0.194-1.303,0.585
			c-0.308,0.388-0.462,0.882-0.462,1.48v3.518h-0.729v-3.885c0-0.54-0.141-0.959-0.421-1.255c-0.28-0.297-0.666-0.443-1.161-0.443
			c-0.557,0-0.991,0.194-1.303,0.585c-0.309,0.388-0.462,0.888-0.462,1.5V373.368L469.037,373.368z"/>
		<path fill="#F6921E" d="M479.269,370.337c0-0.963,0.26-1.741,0.782-2.334c0.525-0.592,1.21-0.888,2.054-0.888
			c0.903,0,1.608,0.31,2.114,0.929c0.509,0.617,0.765,1.381,0.765,2.293c0,0.967-0.266,1.747-0.8,2.34
			c-0.533,0.587-1.227,0.882-2.079,0.882c-0.86,0-1.549-0.312-2.066-0.936C479.524,371.999,479.269,371.237,479.269,370.337z
			 M480.056,370.337c0,0.687,0.19,1.286,0.568,1.794c0.38,0.505,0.881,0.759,1.505,0.759c0.676,0,1.188-0.264,1.54-0.788
			c0.352-0.525,0.526-1.113,0.526-1.765c0-0.731-0.189-1.339-0.567-1.824c-0.377-0.486-0.877-0.728-1.505-0.728
			c-0.652,0-1.159,0.252-1.522,0.757C480.236,369.048,480.056,369.646,480.056,370.337z"/>
		<path fill="#F6921E" d="M489.854,367.115l0.006,0.687c-0.17-0.012-0.324-0.017-0.464-0.017c-0.519,0-0.92,0.174-1.206,0.525
			c-0.281,0.352-0.421,0.832-0.421,1.439v3.618h-0.729v-4.761c0-0.461-0.021-0.896-0.06-1.303h0.753
			c0.023,0.344,0.035,0.66,0.035,0.947c0.157-0.402,0.36-0.693,0.609-0.869c0.253-0.179,0.584-0.268,0.99-0.268
			C489.585,367.115,489.746,367.115,489.854,367.115z"/>
		<path fill="#F6921E" d="M492.102,370.497c0.004,0.71,0.187,1.288,0.55,1.729c0.367,0.443,0.896,0.664,1.588,0.664
			c0.438,0,0.82-0.144,1.149-0.433c0.327-0.291,0.524-0.62,0.592-0.983h0.788c-0.183,0.703-0.506,1.227-0.972,1.57
			c-0.462,0.344-1.054,0.515-1.776,0.515c-0.85,0-1.514-0.296-1.99-0.887c-0.478-0.598-0.717-1.375-0.717-2.335
			c0-0.94,0.25-1.712,0.752-2.315c0.505-0.604,1.169-0.906,1.989-0.906c0.921,0,1.614,0.297,2.08,0.888
			c0.47,0.589,0.704,1.42,0.704,2.494H492.102L492.102,370.497z M492.125,369.827h3.926c-0.043-0.619-0.236-1.115-0.58-1.486
			c-0.34-0.372-0.806-0.556-1.397-0.556c-0.576,0-1.033,0.196-1.368,0.592C492.374,368.771,492.18,369.255,492.125,369.827z"/>
	</g>
</g>
</svg>
