<?xml version="1.0" encoding="utf-8"?>
<!-- Generator: Adobe Illustrator 16.0.0, SVG Export Plug-In . SVG Version: 6.00 Build 0)  -->
<!DOCTYPE svg PUBLIC "-//W3C//DTD SVG 1.1//EN" "http://www.w3.org/Graphics/SVG/1.1/DTD/svg11.dtd">
<svg version="1.1" id="Capa_1" xmlns="http://www.w3.org/2000/svg" xmlns:xlink="http://www.w3.org/1999/xlink" x="0px" y="0px"
	 width="81px" height="78.3px" viewBox="139.5 140.85 81 78.3" enable-background="new 139.5 140.85 81 78.3" xml:space="preserve">
<g>
	<path fill="#FFFFFF" d="M153.675,148.95c-3.349,0-6.075,2.726-6.075,6.075c0,3.35,2.726,6.075,6.075,6.075
		c3.35,0,6.075-2.726,6.075-6.075C159.75,151.676,157.024,148.95,153.675,148.95z M153.675,158.4c-1.86,0-3.375-1.513-3.375-3.375
		c0-1.861,1.515-3.375,3.375-3.375s3.375,1.514,3.375,3.375C157.05,156.887,155.535,158.4,153.675,158.4z"/>
	<circle fill="#FFFFFF" cx="207" cy="153" r="1.35"/>
	<circle fill="#FFFFFF" cx="201.6" cy="153" r="1.35"/>
	<circle fill="#FFFFFF" cx="209.7" cy="157.05" r="1.35"/>
	<circle fill="#FFFFFF" cx="204.3" cy="157.05" r="1.35"/>
	<circle fill="#FFFFFF" cx="196.2" cy="153" r="1.35"/>
	<circle fill="#FFFFFF" cx="198.9" cy="157.05" r="1.35"/>
	<circle fill="#FFFFFF" cx="190.8" cy="153" r="1.35"/>
	<circle fill="#FFFFFF" cx="193.5" cy="157.05" r="1.35"/>
	<circle fill="#FFFFFF" cx="185.4" cy="153" r="1.35"/>
	<circle fill="#FFFFFF" cx="188.1" cy="157.05" r="1.35"/>
	<path fill="#FFFFFF" d="M220.5,162.979v-15.908c0-3.43-2.791-6.221-6.221-6.221h-68.559c-3.43,0-6.221,2.791-6.221,6.221v15.907
		c0,1.983,0.949,3.732,2.399,4.872c-1.45,1.139-2.399,2.889-2.399,4.871v15.907c0,3.432,2.791,6.222,6.221,6.222h32.929v10.937
		c-2.641,0.539-4.725,2.623-5.264,5.264H140.85c-0.745,0-1.35,0.604-1.35,1.351c0,0.746,0.605,1.35,1.35,1.35h32.536
		c0.628,3.076,3.354,5.4,6.614,5.4c3.261,0,5.985-2.324,6.613-5.4h32.537c0.745,0,1.35-0.604,1.35-1.35
		c0-0.747-0.604-1.351-1.35-1.351h-32.537c-0.538-2.641-2.623-4.725-5.264-5.264V194.85h32.93c3.43,0,6.221-2.79,6.221-6.221
		v-15.908c0-1.983-0.949-3.731-2.399-4.871C219.551,166.71,220.5,164.961,220.5,162.979z M184.05,212.4
		c0,2.232-1.817,4.05-4.05,4.05c-2.233,0-4.05-1.817-4.05-4.05c0-2.233,1.817-4.051,4.05-4.051
		C182.232,208.35,184.05,210.167,184.05,212.4z M217.8,172.721v15.907c0,1.942-1.579,3.522-3.521,3.522h-68.559
		c-1.941,0-3.521-1.58-3.521-3.521v-15.908c0-1.941,1.579-3.521,3.521-3.521h68.557C216.221,169.2,217.8,170.779,217.8,172.721z
		 M145.721,166.5c-1.941,0-3.521-1.58-3.521-3.521v-15.908c0-1.941,1.579-3.521,3.521-3.521h68.557c1.943,0,3.522,1.58,3.522,3.521
		v15.907c0,1.942-1.579,3.522-3.521,3.522H145.721z"/>
	<path fill="#FFFFFF" d="M153.675,186.75c3.35,0,6.075-2.726,6.075-6.075c0-3.349-2.726-6.075-6.075-6.075
		c-3.349,0-6.075,2.726-6.075,6.075C147.6,184.024,150.326,186.75,153.675,186.75z M153.675,177.3c1.86,0,3.375,1.514,3.375,3.375
		s-1.515,3.375-3.375,3.375s-3.375-1.514-3.375-3.375S151.814,177.3,153.675,177.3z"/>
	<circle fill="#FFFFFF" cx="207" cy="178.65" r="1.35"/>
	<circle fill="#FFFFFF" cx="201.6" cy="178.65" r="1.35"/>
	<circle fill="#FFFFFF" cx="209.7" cy="182.7" r="1.35"/>
	<circle fill="#FFFFFF" cx="204.3" cy="182.7" r="1.35"/>
	<circle fill="#FFFFFF" cx="196.2" cy="178.65" r="1.35"/>
	<circle fill="#FFFFFF" cx="198.9" cy="182.7" r="1.35"/>
	<circle fill="#FFFFFF" cx="190.8" cy="178.65" r="1.35"/>
	<circle fill="#FFFFFF" cx="193.5" cy="182.7" r="1.35"/>
	<circle fill="#FFFFFF" cx="185.4" cy="178.65" r="1.35"/>
	<circle fill="#FFFFFF" cx="188.1" cy="182.7" r="1.35"/>
</g>
</svg>
