<?xml version="1.0" encoding="utf-8"?>
<!-- Generator: Adobe Illustrator 16.0.0, SVG Export Plug-In . SVG Version: 6.00 Build 0)  -->
<!DOCTYPE svg PUBLIC "-//W3C//DTD SVG 1.1//EN" "http://www.w3.org/Graphics/SVG/1.1/DTD/svg11.dtd">
<svg version="1.1" id="Capa_1" xmlns="http://www.w3.org/2000/svg" xmlns:xlink="http://www.w3.org/1999/xlink" x="0px" y="0px"
	 width="50px" height="80.318px" viewBox="261.3 246.141 50 80.318" enable-background="new 261.3 246.141 50 80.318"
	 xml:space="preserve">
<g>
	<path fill="#FFFFFF" d="M311.3,290.621c0-10.526-5.673-19.662-13.93-24.128c-0.623-4.46-4.451-7.905-9.079-7.905
		c-1.033,0-2.024,0.179-2.952,0.495v-4.091c0-1.011-0.765-1.836-1.748-1.945v-3.189c0-0.075-0.015-0.146-0.021-0.219h1.588
		c0.722,0,1.31-0.587,1.31-1.312v-0.874c0-0.725-0.587-1.311-1.31-1.311h-10.126c-0.725,0-1.312,0.586-1.312,1.311v0.874
		c0,0.725,0.587,1.312,1.312,1.312h1.586c-0.007,0.073-0.022,0.144-0.022,0.219v3.19c-0.981,0.109-1.747,0.932-1.747,1.945v28.848
		c0,1.068,0.851,1.932,1.912,1.962v13.227h0.068c0.308,0.374,1.652,0.984,3.264,0.984c1.615,0,2.959-0.61,3.267-0.984h0.066v-13.227
		c1.061-0.029,1.914-0.894,1.914-1.961v-7.39c0.928,0.316,1.919,0.495,2.952,0.495c3.292,0,6.176-1.748,7.797-4.357
		c5.58,3.722,9.311,10.412,9.311,18.031c0,4.726-1.436,9.094-3.853,12.617l-6.589,2.632v-0.172H268.84v2.84h26.117v-1.256
		l4.973-1.987c-3.541,3.985-8.505,6.472-13.996,6.472v0.049h-5.839v6.775H261.3v7.868h40.979v-7.868h-10.381v-1.685
		C303.015,314.038,311.3,303.346,311.3,290.621z M288.291,274.98c-3.977,0-7.212-3.235-7.212-7.212c0-3.977,3.235-7.212,7.212-7.212
		c3.15,0,5.829,2.034,6.81,4.856c-0.859-0.356-1.737-0.667-2.639-0.922c-0.971-1.236-2.477-2.032-4.172-2.032
		c-2.934,0-5.311,2.378-5.311,5.311s2.378,5.31,5.311,5.31c1.813,0,3.411-0.91,4.371-2.297c0.594,0.238,1.172,0.506,1.735,0.804
		C293.122,273.619,290.866,274.98,288.291,274.98z"/>
</g>
</svg>
