<?xml version="1.0" encoding="utf-8"?>
<!-- Generator: Adobe Illustrator 16.0.0, SVG Export Plug-In . SVG Version: 6.00 Build 0)  -->
<!DOCTYPE svg PUBLIC "-//W3C//DTD SVG 1.1//EN" "http://www.w3.org/Graphics/SVG/1.1/DTD/svg11.dtd">
<svg version="1.1" id="Capa_1" xmlns="http://www.w3.org/2000/svg" xmlns:xlink="http://www.w3.org/1999/xlink" x="0px" y="0px"
	 width="56px" height="60.48px" viewBox="151.999 149.76 56 60.48" enable-background="new 151.999 149.76 56 60.48"
	 xml:space="preserve">
<g>
	<path fill="#FFFFFF" d="M179.999,158.72c-10.499,0-19.04,8.541-19.04,19.04c0,7.965,4.917,15.021,12.32,17.808v10.192
		c0,0.619,0.5,1.119,1.12,1.119h1.12v2.24c0,0.619,0.501,1.12,1.12,1.12h6.72c0.619,0,1.12-0.501,1.12-1.12v-2.24h1.12
		c0.619,0,1.12-0.5,1.12-1.119v-10.192c7.401-2.787,12.319-9.843,12.319-17.808C199.039,167.261,190.498,158.72,179.999,158.72z
		 M183.359,204.64c-0.619,0-1.12,0.501-1.12,1.121V208h-4.48v-2.239c0-0.62-0.5-1.121-1.12-1.121h-1.12v-5.6h8.96v5.6H183.359z
		 M185.25,193.711c-0.461,0.151-0.771,0.581-0.771,1.064v2.024h-8.96v-2.024c0-0.484-0.31-0.913-0.771-1.064
		c-6.907-2.271-11.549-8.682-11.549-15.951c0-9.264,7.537-16.8,16.8-16.8c9.264,0,16.8,7.536,16.8,16.8
		C196.799,185.029,192.157,191.44,185.25,193.711z"/>
	<path fill="#FFFFFF" d="M179.999,156.48c0.619,0,1.12-0.501,1.12-1.12v-4.48c0-0.62-0.501-1.12-1.12-1.12s-1.12,0.5-1.12,1.12v4.48
		C178.879,155.979,179.38,156.48,179.999,156.48z"/>
	<path fill="#FFFFFF" d="M206.879,176.64h-4.479c-0.62,0-1.12,0.5-1.12,1.12c0,0.619,0.5,1.12,1.12,1.12h4.479
		c0.62,0,1.12-0.501,1.12-1.12C207.999,177.141,207.499,176.64,206.879,176.64z"/>
	<path fill="#FFFFFF" d="M157.599,176.64h-4.48c-0.619,0-1.12,0.5-1.12,1.12c0,0.619,0.501,1.12,1.12,1.12h4.48
		c0.62,0,1.12-0.501,1.12-1.12C158.719,177.141,158.219,176.64,157.599,176.64z"/>
	<path fill="#FFFFFF" d="M198.215,157.961l-3.167,3.167c-0.438,0.438-0.438,1.146,0,1.583c0.218,0.218,0.505,0.328,0.792,0.328
		c0.286,0,0.573-0.11,0.791-0.328l3.168-3.167c0.438-0.438,0.438-1.146,0-1.583C199.36,157.523,198.651,157.524,198.215,157.961z"/>
	<path fill="#FFFFFF" d="M163.367,192.809l-3.167,3.167c-0.438,0.438-0.438,1.146,0,1.584c0.219,0.219,0.505,0.328,0.792,0.328
		s0.574-0.109,0.792-0.328l3.167-3.168c0.438-0.438,0.438-1.146,0-1.583C164.513,192.37,163.805,192.37,163.367,192.809z"/>
	<path fill="#FFFFFF" d="M196.631,192.809c-0.438-0.438-1.146-0.438-1.583,0c-0.438,0.438-0.438,1.146,0,1.583l3.167,3.168
		c0.219,0.219,0.505,0.328,0.792,0.328c0.286,0,0.573-0.109,0.792-0.328c0.438-0.438,0.438-1.146,0-1.584L196.631,192.809z"/>
	<path fill="#FFFFFF" d="M163.367,162.712c0.218,0.218,0.505,0.328,0.792,0.328s0.573-0.11,0.792-0.328
		c0.438-0.438,0.438-1.146,0-1.583l-3.167-3.167c-0.438-0.438-1.146-0.438-1.584,0c-0.438,0.438-0.438,1.146,0,1.583
		L163.367,162.712z"/>
	<path fill="#FFFFFF" d="M179.999,164.32c-7.411,0-13.44,6.029-13.44,13.44c0,0.619,0.501,1.12,1.12,1.12
		c0.62,0,1.12-0.501,1.12-1.12c0-6.176,5.024-11.2,11.2-11.2c0.619,0,1.12-0.5,1.12-1.12
		C181.119,164.821,180.618,164.32,179.999,164.32z"/>
</g>
</svg>
