<?xml version="1.0" encoding="utf-8"?>
<!-- Generator: Adobe Illustrator 16.0.0, SVG Export Plug-In . SVG Version: 6.00 Build 0)  -->
<!DOCTYPE svg PUBLIC "-//W3C//DTD SVG 1.1//EN" "http://www.w3.org/Graphics/SVG/1.1/DTD/svg11.dtd">
<svg version="1.1" id="Layer_1" xmlns="http://www.w3.org/2000/svg" xmlns:xlink="http://www.w3.org/1999/xlink" x="0px" y="0px"
	 width="58px" height="77.333px" viewBox="151 141.333 58 77.333" enable-background="new 151 141.333 58 77.333"
	 xml:space="preserve">
<g>
	<g>
		<g>
			<path fill="#FFFFFF" d="M207.389,141.333h-35.444c0,0,0,0-0.322,0c0,0,0,0-0.322,0s-0.645,0.322-0.645,0.322l-19.333,19.333
				C151,161.311,151,161.311,151,161.633c0,0,0,0,0,0.322c0,0,0,0,0,0.322v54.778c0,0.967,0.645,1.611,1.611,1.611h54.777
				c0.967,0,1.611-0.645,1.611-1.611v-74.111C209,141.978,208.355,141.333,207.389,141.333z M170.333,146.811v13.855h-13.855
				L170.333,146.811z M165.5,205.777c-0.967,0-1.611-0.644-1.611-1.61v-5.801l-0.322,0.322c-0.645,0.645-1.611,0.645-2.256,0
				s-0.645-1.611,0-2.255l3.222-3.223c0.322-0.322,1.289-0.645,1.611-0.322c0.645,0.322,0.967,0.967,0.967,1.611v9.667l0,0
				C167.111,205.134,166.467,205.777,165.5,205.777z M168.722,186.444h-6.444c-0.967,0-1.611-0.645-1.611-1.611v-9.667
				c0-0.967,0.645-1.611,1.611-1.611h6.444c0.967,0,1.611,0.644,1.611,1.611v9.667C170.333,185.8,169.689,186.444,168.722,186.444z
				 M180,204.167c0,0.967-0.645,1.61-1.611,1.61h-6.444c-0.967,0-1.611-0.644-1.611-1.61V194.5c0-0.967,0.644-1.611,1.611-1.611
				h6.444c0.967,0,1.611,0.645,1.611,1.611V204.167z M178.389,186.444c-0.966,0-1.611-0.645-1.611-1.611v-5.8l-0.322,0.322
				c-0.645,0.645-1.611,0.645-2.256,0c-0.644-0.645-0.644-1.611,0-2.256l3.222-3.222c0.322-0.322,1.289-0.645,1.611-0.322
				c0.645,0.322,0.967,0.966,0.967,1.611v9.667l0,0C180,185.8,179.355,186.444,178.389,186.444z M188.056,205.777
				c-0.967,0-1.611-0.644-1.611-1.61v-5.801l-0.322,0.322c-0.645,0.645-1.611,0.645-2.256,0c-0.644-0.645-0.644-1.611,0-2.255
				l3.223-3.223c0.322-0.322,1.289-0.645,1.611-0.322c0.645,0.322,0.967,0.967,0.967,1.611v9.667l0,0
				C189.667,205.134,189.022,205.777,188.056,205.777z M188.056,186.444c-0.967,0-1.611-0.645-1.611-1.611v-5.8l-0.322,0.322
				c-0.645,0.645-1.611,0.645-2.256,0c-0.644-0.645-0.644-1.611,0-2.256l3.223-3.222c0.322-0.322,1.289-0.645,1.611-0.322
				c0.645,0.322,0.967,0.966,0.967,1.611v9.667l0,0C189.667,185.8,189.022,186.444,188.056,186.444z M197.723,205.777
				c-0.967,0-1.611-0.644-1.611-1.61v-5.801l-0.322,0.322c-0.645,0.645-1.611,0.645-2.256,0s-0.645-1.611,0-2.255l3.223-3.223
				c0.321-0.322,1.288-0.645,1.61-0.322c0.645,0.322,0.967,0.967,0.967,1.611v9.667l0,0
				C199.333,205.134,198.688,205.777,197.723,205.777z M197.723,186.444c-0.967,0-1.611-0.645-1.611-1.611v-5.8l-0.322,0.322
				c-0.645,0.645-1.611,0.645-2.256,0s-0.645-1.611,0-2.256l3.223-3.222c0.321-0.322,1.288-0.645,1.61-0.322
				c0.645,0.322,0.967,0.966,0.967,1.611v9.667l0,0C199.333,185.8,198.688,186.444,197.723,186.444z"/>
			<rect x="173.556" y="196.111" fill="#FFFFFF" width="3.222" height="6.444"/>
			<rect x="163.889" y="176.778" fill="#FFFFFF" width="3.222" height="6.445"/>
		</g>
	</g>
</g>
</svg>
