<?xml version="1.0" encoding="utf-8"?>
<!-- Generator: Adobe Illustrator 16.0.0, SVG Export Plug-In . SVG Version: 6.00 Build 0)  -->
<!DOCTYPE svg PUBLIC "-//W3C//DTD SVG 1.1//EN" "http://www.w3.org/Graphics/SVG/1.1/DTD/svg11.dtd">
<svg version="1.1" id="Capa_1" xmlns="http://www.w3.org/2000/svg" xmlns:xlink="http://www.w3.org/1999/xlink" x="0px" y="0px"
	 width="73px" height="75.611px" viewBox="143.502 142.195 73 75.611" enable-background="new 143.502 142.195 73 75.611"
	 xml:space="preserve">
<g>
	<g id="Layer_5_88_">
		<g>
			<path fill="#FFFFFF" d="M184,202.102c0-9.991,8.099-18.09,18.089-18.09c2.104,0,3.464,0.252,4.89,0.673
				c0.961,0.407,1.328-0.395,1.429-0.769c0.653-2.441,1.02-4.931,1.02-7.439c0-0.168-0.094-21.519-0.094-21.783
				c0-2.105-1.206-2.101-1.745-2.098c-3.864,0.018-7.805,0.02-11.948-1.175c-8.61-2.482-16.265-9.227-19.175-9.227
				c-2.819,0-8.502,6.745-17.113,9.227c-4.855,1.4-9.511,1.14-13.867,0.938c-0.512-0.023-1.327-0.159-1.585,1.615
				c-0.065,0.447-0.397,22.262-0.397,22.502c0,21.311,26.366,41.329,32.961,41.329c2.111,0,5.512-1.695,10.089-5.101
				c0.609-0.527,0.283-0.877,0.103-1.171C184.973,208.788,184,205.559,184,202.102z"/>
			<path fill="#FFFFFF" d="M202.203,211.325c-0.609,0.656-1.697,0.758-2.418,0.226l-11.455-8.471c-0.72-0.533-0.868-1.554-0.33-2.27
				l1.47-1.951c0.539-0.716,1.57-0.867,2.293-0.338l7.346,5.391c0.722,0.53,1.812,0.427,2.42-0.23l10.368-10.853
				c0.609-0.656,1.645-0.695,2.3-0.085l1.788,1.665c0.656,0.609,0.694,1.646,0.085,2.303L202.203,211.325z"/>
		</g>
	</g>
</g>
</svg>
