<?xml version="1.0" encoding="utf-8"?>
<!-- Generator: Adobe Illustrator 16.0.0, SVG Export Plug-In . SVG Version: 6.00 Build 0)  -->
<!DOCTYPE svg PUBLIC "-//W3C//DTD SVG 1.1//EN" "http://www.w3.org/Graphics/SVG/1.1/DTD/svg11.dtd">
<svg version="1.1" id="Layer_1" xmlns="http://www.w3.org/2000/svg" xmlns:xlink="http://www.w3.org/1999/xlink" x="0px" y="0px"
	 width="80px" height="79.987px" viewBox="140 140.006 80 79.987" enable-background="new 140 140.006 80 79.987"
	 xml:space="preserve">
<g>
	<g>
		<g>
			<path fill="#FFFFFF" d="M211.5,148.493c-11.314-11.315-29.726-11.315-41.041,0c-5.481,5.481-8.5,12.769-8.5,20.521
				c0,7.062,2.506,13.737,7.096,19.014l-3.456,3.456l-3.522-3.522c-0.386-0.386-0.91-0.603-1.455-0.603
				c-0.546,0-1.069,0.217-1.456,0.603l-16.501,16.502c-1.719,1.718-2.665,4.003-2.665,6.433c0,2.431,0.946,4.715,2.665,6.433
				c1.718,1.719,4.003,2.665,6.433,2.665c2.43,0,4.715-0.946,6.433-2.664l16.502-16.502c0.386-0.386,0.603-0.909,0.603-1.455
				s-0.217-1.069-0.603-1.455l-3.522-3.522l3.457-3.457c5.437,4.721,12.225,7.083,19.013,7.083c7.432,0,14.863-2.829,20.521-8.486
				c5.481-5.481,8.5-12.769,8.5-20.521C220,161.262,216.981,153.974,211.5,148.493z M152.62,214.418
				c-0.941,0.94-2.192,1.459-3.522,1.459c-1.33,0-2.581-0.519-3.522-1.459c-0.94-0.94-1.459-2.191-1.459-3.522
				c0-1.33,0.519-2.581,1.459-3.521l9.208-9.209l7.044,7.044L152.62,214.418z M164.739,202.299l-7.044-7.045l2.927-2.927
				l7.044,7.044L164.739,202.299z M208.59,186.623c-9.71,9.71-25.51,9.71-35.22,0c-4.704-4.704-7.294-10.958-7.294-17.61
				c0-6.652,2.59-12.906,7.294-17.609c4.855-4.855,11.232-7.283,17.61-7.283c6.377,0,12.754,2.427,17.609,7.283
				c4.703,4.704,7.294,10.958,7.294,17.609C215.884,175.666,213.293,181.919,208.59,186.623z"/>
		</g>
	</g>
	<g>
		<g>
			<path fill="#FFFFFF" d="M205.192,154.8c-7.837-7.837-20.589-7.837-28.426,0c-7.837,7.837-7.837,20.589,0,28.426
				c3.918,3.918,9.065,5.877,14.212,5.877s10.295-1.959,14.214-5.877l0,0C213.03,175.389,213.03,162.637,205.192,154.8z
				 M202.282,180.315c-6.232,6.232-16.372,6.232-22.604,0c-6.232-6.232-6.232-16.373,0-22.605c3.117-3.117,7.208-4.674,11.302-4.674
				c4.093,0,8.187,1.558,11.303,4.674C208.515,163.943,208.515,174.083,202.282,180.315z"/>
		</g>
	</g>
	<g>
		<g>
			<path fill="#FFFFFF" d="M198.644,161.349c-4.226-4.226-11.102-4.226-15.328,0c-0.804,0.804-0.804,2.107,0,2.911
				c0.804,0.804,2.107,0.804,2.911,0c2.621-2.621,6.886-2.621,9.507,0c0.402,0.402,0.929,0.603,1.455,0.603s1.054-0.201,1.455-0.603
				C199.447,163.457,199.447,162.153,198.644,161.349z"/>
		</g>
	</g>
</g>
</svg>
