<?xml version="1.0" encoding="utf-8"?>
<!-- Generator: Adobe Illustrator 16.0.0, SVG Export Plug-In . SVG Version: 6.00 Build 0)  -->
<!DOCTYPE svg PUBLIC "-//W3C//DTD SVG 1.1//EN" "http://www.w3.org/Graphics/SVG/1.1/DTD/svg11.dtd">
<svg version="1.1" id="Layer_1" xmlns="http://www.w3.org/2000/svg" xmlns:xlink="http://www.w3.org/1999/xlink" x="0px" y="0px"
	 width="85px" height="75.724px" viewBox="137.5 142.137 85 75.724" enable-background="new 137.5 142.137 85 75.724"
	 xml:space="preserve">
<g>
	<g>
		<g>
			<path fill="#FFFFFF" d="M217.368,142.137h-74.737c-2.83,0-5.131,2.302-5.131,5.131v51.602c0,2.829,2.302,5.131,5.131,5.131h25.61
				v3.733c0,3.423-2.785,6.208-6.208,6.208h-5.644c-1.082,0-1.959,0.877-1.959,1.959c0,1.083,0.877,1.96,1.959,1.96h47.221
				c1.082,0,1.959-0.877,1.959-1.96c0-1.082-0.877-1.959-1.959-1.959h-5.645c-3.423,0-6.208-2.785-6.208-6.208v-3.733h25.61
				c2.829,0,5.132-2.302,5.132-5.131v-51.602C222.5,144.439,220.198,142.137,217.368,142.137z M170.025,213.942
				c1.336-1.716,2.134-3.869,2.134-6.207v-3.733h15.68v3.733c0,2.338,0.799,4.491,2.135,6.207H170.025z M218.581,198.87
				c0,0.669-0.544,1.213-1.213,1.213h-74.737c-0.668,0-1.212-0.544-1.212-1.213v-10.299h77.163V198.87z M218.581,184.652h-77.163
				v-37.384c0-0.668,0.544-1.212,1.212-1.212h74.737c0.669,0,1.213,0.544,1.213,1.212V184.652L218.581,184.652z"/>
		</g>
	</g>
	<g>
		<g>
			<circle fill="#FFFFFF" cx="180" cy="194.328" r="2.115"/>
		</g>
	</g>
	<g>
		<g>
			<path fill="#FFFFFF" d="M183.359,155.637c-0.766-0.765-2.005-0.765-2.771,0l-13.848,13.848c-0.765,0.765-0.765,2.006,0,2.771
				c0.383,0.382,0.884,0.574,1.386,0.574c0.501,0,1.003-0.191,1.385-0.574l13.848-13.848
				C184.125,157.644,184.125,156.402,183.359,155.637z"/>
		</g>
	</g>
	<g>
		<g>
			<path fill="#FFFFFF" d="M191.567,163.662c-0.765-0.765-2.005-0.765-2.771,0l-5.517,5.517c-0.765,0.765-0.765,2.006,0,2.771
				c0.383,0.383,0.884,0.574,1.386,0.574c0.501,0,1.003-0.191,1.386-0.574l5.517-5.516
				C192.333,165.668,192.333,164.427,191.567,163.662z"/>
		</g>
	</g>
</g>
</svg>
