<?xml version="1.0" encoding="utf-8"?>
<!-- Generator: Adobe Illustrator 16.0.0, SVG Export Plug-In . SVG Version: 6.00 Build 0)  -->
<!DOCTYPE svg PUBLIC "-//W3C//DTD SVG 1.1//EN" "http://www.w3.org/Graphics/SVG/1.1/DTD/svg11.dtd">
<svg version="1.1" id="Capa_1" xmlns="http://www.w3.org/2000/svg" xmlns:xlink="http://www.w3.org/1999/xlink" x="0px" y="0px"
	 width="57px" height="55.1px" viewBox="151.5 152.45 57 55.1" enable-background="new 151.5 152.45 57 55.1" xml:space="preserve">
<g>
	<path fill="#FFFFFF" d="M161.475,158.15c-2.357,0-4.275,1.918-4.275,4.275s1.918,4.275,4.275,4.275s4.275-1.918,4.275-4.275
		S163.832,158.15,161.475,158.15z M161.475,164.8c-1.309,0-2.375-1.065-2.375-2.375s1.066-2.375,2.375-2.375
		s2.375,1.065,2.375,2.375S162.784,164.8,161.475,164.8z"/>
	<circle fill="#FFFFFF" cx="199" cy="161" r="0.95"/>
	<circle fill="#FFFFFF" cx="195.2" cy="161" r="0.95"/>
	<circle fill="#FFFFFF" cx="200.9" cy="163.85" r="0.95"/>
	<circle fill="#FFFFFF" cx="197.1" cy="163.85" r="0.95"/>
	<circle fill="#FFFFFF" cx="191.4" cy="161" r="0.95"/>
	<circle fill="#FFFFFF" cx="193.3" cy="163.85" r="0.95"/>
	<circle fill="#FFFFFF" cx="187.6" cy="161" r="0.95"/>
	<circle fill="#FFFFFF" cx="189.5" cy="163.85" r="0.95"/>
	<circle fill="#FFFFFF" cx="183.8" cy="161" r="0.95"/>
	<circle fill="#FFFFFF" cx="185.7" cy="163.85" r="0.95"/>
	<path fill="#FFFFFF" d="M208.5,168.022v-11.195c0-2.414-1.964-4.377-4.378-4.377h-48.245c-2.414,0-4.377,1.963-4.377,4.377v11.194
		c0,1.396,0.668,2.627,1.688,3.429c-1.02,0.802-1.688,2.033-1.688,3.427v11.194c0,2.415,1.964,4.379,4.377,4.379h23.172v7.695
		c-1.858,0.38-3.325,1.847-3.704,3.704H152.45c-0.524,0-0.95,0.425-0.95,0.95s0.426,0.95,0.95,0.95h22.896
		c0.442,2.165,2.36,3.8,4.654,3.8c2.294,0,4.212-1.635,4.654-3.8h22.896c0.524,0,0.95-0.425,0.95-0.95s-0.426-0.95-0.95-0.95
		h-22.896c-0.379-1.857-1.846-3.324-3.704-3.704v-7.695h23.172c2.414,0,4.378-1.964,4.378-4.378v-11.195
		c0-1.396-0.668-2.625-1.688-3.427C207.832,170.648,208.5,169.417,208.5,168.022z M182.85,202.8c0,1.571-1.278,2.851-2.85,2.851
		s-2.85-1.279-2.85-2.851s1.279-2.85,2.85-2.85S182.85,201.229,182.85,202.8z M206.6,174.877v11.194
		c0,1.367-1.111,2.479-2.478,2.479h-48.245c-1.366,0-2.478-1.111-2.478-2.478v-11.195c0-1.366,1.112-2.478,2.478-2.478h48.244
		C205.488,172.4,206.6,173.512,206.6,174.877z M155.877,170.5c-1.366,0-2.478-1.111-2.478-2.478v-11.195
		c0-1.366,1.112-2.478,2.478-2.478h48.244c1.367,0,2.479,1.111,2.479,2.478v11.194c0,1.367-1.111,2.479-2.478,2.479H155.877z"/>
	<path fill="#FFFFFF" d="M161.475,184.75c2.357,0,4.275-1.918,4.275-4.275s-1.918-4.275-4.275-4.275s-4.275,1.918-4.275,4.275
		S159.118,184.75,161.475,184.75z M161.475,178.1c1.309,0,2.375,1.065,2.375,2.375s-1.066,2.375-2.375,2.375
		s-2.375-1.064-2.375-2.375S160.166,178.1,161.475,178.1z"/>
	<circle fill="#FFFFFF" cx="199" cy="179.05" r="0.95"/>
	<circle fill="#FFFFFF" cx="195.2" cy="179.05" r="0.95"/>
	<circle fill="#FFFFFF" cx="200.9" cy="181.9" r="0.95"/>
	<circle fill="#FFFFFF" cx="197.1" cy="181.9" r="0.95"/>
	<circle fill="#FFFFFF" cx="191.4" cy="179.05" r="0.95"/>
	<circle fill="#FFFFFF" cx="193.3" cy="181.9" r="0.95"/>
	<circle fill="#FFFFFF" cx="187.6" cy="179.05" r="0.95"/>
	<circle fill="#FFFFFF" cx="189.5" cy="181.9" r="0.95"/>
	<circle fill="#FFFFFF" cx="183.8" cy="179.05" r="0.95"/>
	<circle fill="#FFFFFF" cx="185.7" cy="181.9" r="0.95"/>
</g>
</svg>
