<?xml version="1.0" encoding="utf-8"?>
<!-- Generator: Adobe Illustrator 16.0.0, SVG Export Plug-In . SVG Version: 6.00 Build 0)  -->
<!DOCTYPE svg PUBLIC "-//W3C//DTD SVG 1.1//EN" "http://www.w3.org/Graphics/SVG/1.1/DTD/svg11.dtd">
<svg version="1.1" id="Capa_1" xmlns="http://www.w3.org/2000/svg" xmlns:xlink="http://www.w3.org/1999/xlink" x="0px" y="0px"
	 width="57px" height="82.182px" viewBox="151.505 138.91 57 82.182" enable-background="new 151.505 138.91 57 82.182"
	 xml:space="preserve">
<g>
	<path fill="#FFFFFF" d="M208.486,153.132c0.164-1.181-1.18-1.702-1.631-1.874l-20.312-7.75c-1.028-0.392-2.544-1.486-3.236-2.343
		l-0.868-1.068c-0.623-0.766-1.464-1.187-2.364-1.187c-0.945,0-1.834,0.478-2.443,1.305l-0.461,0.628
		c-0.643,0.875-2.092,1.983-3.105,2.374l-20.914,8.037c-0.447,0.175-1.787,0.697-1.626,1.874c-0.001,0.034-0.021,0.063-0.021,0.099
		v7.818c0,0.661,0.534,1.194,1.195,1.194c0.661,0,1.193-0.534,1.193-1.194v-6.625h18.522l-11.554,65.271
		c-0.115,0.65,0.318,1.27,0.97,1.382c0.646,0.12,1.267-0.317,1.382-0.966l2.751-15.538h28.209l3.11,15.564
		c0.115,0.566,0.612,0.959,1.17,0.959c0.079,0,0.157-0.008,0.235-0.025c0.646-0.129,1.067-0.757,0.939-1.401l-13.033-65.246h19.519
		v6.625c0,0.661,0.536,1.194,1.193,1.194c0.663,0,1.197-0.534,1.197-1.194v-7.818C208.506,153.191,208.488,153.164,208.486,153.132z
		 M171.316,174.35h5.821l-7.461,9.252L171.316,174.35z M170.188,186.774l9.465-11.741l9.863,11.741H170.188z M186.885,189.162
		l-7.156,4.188l-7.468-4.188H186.885z M168.573,189.832l8.768,4.914l-10.748,6.289L168.573,189.832z M169.371,202.178l10.383-6.076
		l10.834,6.076H169.371z M193.476,201.06l-11.333-6.355l9.012-5.272L193.476,201.06z M189.996,183.634l-7.8-9.283h5.944
		L189.996,183.634z M187.664,171.961h-15.926l2.944-16.637h9.659L187.664,171.961z M157.786,152.032l17.135-6.588
		c1.433-0.55,3.268-1.952,4.176-3.188l0.459-0.627c0.31-0.422,0.704-0.424,1.03-0.024l0.868,1.067
		c0.959,1.18,2.822,2.528,4.238,3.068l16.491,6.292H157.786z"/>
</g>
</svg>
