<?xml version="1.0" encoding="utf-8"?>
<!-- Generator: Adobe Illustrator 16.0.0, SVG Export Plug-In . SVG Version: 6.00 Build 0)  -->
<!DOCTYPE svg PUBLIC "-//W3C//DTD SVG 1.1//EN" "http://www.w3.org/Graphics/SVG/1.1/DTD/svg11.dtd">
<svg version="1.1" id="Capa_1" xmlns="http://www.w3.org/2000/svg" xmlns:xlink="http://www.w3.org/1999/xlink" x="0px" y="0px"
	 width="99px" height="78.786px" viewBox="180.648 190.756 99 78.786" enable-background="new 180.648 190.756 99 78.786"
	 xml:space="preserve">
<g>
	<g>
		<path fill="#FFFFFF" d="M230.148,206.66l-35.308,29.107c0,0.041-0.01,0.102-0.031,0.185c-0.02,0.081-0.031,0.141-0.031,0.183
			v29.475c0,1.064,0.389,1.986,1.167,2.764c0.778,0.776,1.699,1.168,2.763,1.168h23.579v-23.58h15.722v23.581h23.579
			c1.064,0,1.986-0.391,2.763-1.169c0.778-0.776,1.168-1.699,1.168-2.764v-29.475c0-0.163-0.021-0.287-0.062-0.367L230.148,206.66z"
			/>
		<path fill="#FFFFFF" d="M278.965,229.136l-13.447-11.176v-25.054c0-0.573-0.184-1.043-0.554-1.412
			c-0.366-0.368-0.838-0.552-1.411-0.552h-11.79c-0.573,0-1.044,0.184-1.413,0.552c-0.368,0.369-0.552,0.84-0.552,1.412v11.974
			l-14.982-12.527c-1.309-1.064-2.865-1.596-4.667-1.596s-3.357,0.532-4.667,1.596l-44.152,36.783
			c-0.41,0.327-0.634,0.767-0.675,1.32c-0.042,0.552,0.101,1.035,0.429,1.444l3.807,4.544c0.328,0.368,0.757,0.594,1.29,0.676
			c0.492,0.041,0.983-0.103,1.475-0.43l42.493-35.433l42.493,35.433c0.328,0.285,0.758,0.428,1.29,0.428h0.185
			c0.531-0.081,0.96-0.308,1.289-0.675l3.808-4.543c0.327-0.41,0.471-0.892,0.429-1.445
			C279.599,229.903,279.374,229.463,278.965,229.136z"/>
	</g>
</g>
</svg>
