<?xml version="1.0" encoding="utf-8"?>
<!-- Generator: Adobe Illustrator 16.0.0, SVG Export Plug-In . SVG Version: 6.00 Build 0)  -->
<!DOCTYPE svg PUBLIC "-//W3C//DTD SVG 1.1//EN" "http://www.w3.org/Graphics/SVG/1.1/DTD/svg11.dtd">
<svg version="1.1" id="Capa_1" xmlns="http://www.w3.org/2000/svg" xmlns:xlink="http://www.w3.org/1999/xlink" x="0px" y="0px"
	 width="78px" height="81.795px" viewBox="141.006 139.102 78 81.795" enable-background="new 141.006 139.102 78 81.795"
	 xml:space="preserve">
<g>
	<polygon fill="#FFFFFF" points="188.605,174.389 200.822,139.102 154.04,185.61 171.396,185.61 158.056,220.897 205.956,174.389 	
		"/>
	<path fill="#FFFFFF" d="M201.867,145.996l-2.437,5.475c8.313,6.026,13.726,15.777,13.726,26.822
		c0,18.311-14.844,33.157-33.157,33.157c-3.08,0-5.31-0.452-8.145-1.236l-5.003,4.759c4.287,1.619,8.305,2.316,13.148,2.316
		c21.54,0,39.006-17.459,39.006-38.996C219.001,164.855,212.204,153.013,201.867,145.996z"/>
	<path fill="#FFFFFF" d="M162.008,206.125c-9.122-5.912-15.169-16.157-15.169-27.834c0-18.313,14.849-33.16,33.157-33.16
		c3.342,0,6.566,0.507,9.602,1.424l-0.035-0.019l4.81-4.474c-4.463-1.763-9.3-2.765-14.382-2.765
		c-21.529,0-38.985,17.457-38.985,38.993c0,14.062,7.461,26.345,18.621,33.207L162.008,206.125z"/>
</g>
</svg>
