<?xml version="1.0" encoding="utf-8"?>
<!-- Generator: Adobe Illustrator 16.0.0, SVG Export Plug-In . SVG Version: 6.00 Build 0)  -->
<!DOCTYPE svg PUBLIC "-//W3C//DTD SVG 1.1//EN" "http://www.w3.org/Graphics/SVG/1.1/DTD/svg11.dtd">
<svg version="1.1" id="Capa_1" xmlns="http://www.w3.org/2000/svg" xmlns:xlink="http://www.w3.org/1999/xlink" x="0px" y="0px"
	 width="64px" height="46.089px" viewBox="149 156.956 64 46.089" enable-background="new 149 156.956 64 46.089"
	 xml:space="preserve">
<g>
	<g>
		<path fill="#FFFFFF" d="M191.968,192.948l-0.563-0.563c-0.026-0.026-0.039-0.04-0.065-0.066c-3.121,1.85-6.713,2.846-10.397,2.846
			c-4.629,0-9.035-1.534-12.614-4.366c-0.97,0.669-1.967,1.416-2.937,2.216c-0.773,0.629-1.219,1.587-1.219,2.583v4.733h16.822
			h16.81v-1.561l-4.942-4.942L191.968,192.948z"/>
		<path fill="#FFFFFF" d="M181.741,164.036h-0.748h-0.747c-3.436,0-6.229,2.793-6.229,6.228v6.91c0,1.088,0.551,2.032,1.39,2.596
			v5.9c1.691,0.865,3.58,1.338,5.546,1.338c1.993,0,3.907-0.473,5.612-1.364v-5.861c0.839-0.564,1.39-1.508,1.39-2.596v-6.91
			C187.969,166.816,185.176,164.036,181.741,164.036z"/>
		<path fill="#FFFFFF" d="M211.978,188.346c-3.593-2.95-7.461-4.903-8.248-5.297c-0.092-0.04-0.144-0.132-0.144-0.236v-5.585
			c0.708-0.472,1.166-1.272,1.166-2.177v-5.795c0-2.885-2.333-5.219-5.218-5.219h-0.63h-0.577c1.836,2.977,2.898,6.385,3.029,9.939
			c0.157,3.96-0.839,7.841-2.832,11.198c0.026,0.026,0.039,0.039,0.065,0.065l0.263,0.263l0.301,0.301l0.892,0.892l7.815,7.815H213
			v-3.974C213,189.684,212.62,188.884,211.978,188.346z"/>
		<path fill="#FFFFFF" d="M208.516,198.835l-10.319-10.318l-0.892-0.892l-0.302-0.302l0,0l-0.262-0.263l-0.695,0.695l-1.494-1.495
			c5.926-6.988,5.599-17.478-1.01-24.086c-3.475-3.475-8.038-5.219-12.588-5.219s-9.113,1.744-12.587,5.219
			c-6.95,6.949-6.95,18.226,0,25.175c3.475,3.475,8.038,5.219,12.587,5.219c4.091,0,8.182-1.403,11.499-4.209l1.495,1.494
			l-0.695,0.695l0,0l0,0l0.564,0.563l0.892,0.892l10.318,10.319c0.485,0.485,1.115,0.722,1.744,0.722
			c0.63,0,1.259-0.236,1.744-0.722C209.473,201.366,209.473,199.806,208.516,198.835
			C208.516,198.849,208.516,198.835,208.516,198.835z M191.443,185.265c-2.897,2.897-6.7,4.34-10.489,4.34
			c-3.802,0-7.592-1.442-10.49-4.34c-5.795-5.796-5.795-15.184,0-20.979c2.898-2.898,6.7-4.34,10.49-4.34
			c3.803,0,7.592,1.442,10.489,4.34C197.239,170.067,197.239,179.469,191.443,185.265z"/>
		<path fill="#FFFFFF" d="M163.607,164.036h-0.511h-0.63c-2.884,0-5.218,2.334-5.218,5.219v5.795c0,0.905,0.459,1.705,1.167,2.177
			v5.585c0,0.104-0.053,0.184-0.145,0.236c-0.787,0.38-4.655,2.347-8.247,5.297c-0.643,0.538-1.023,1.338-1.023,2.177v3.973h12.745
			c0.262-1.351,0.97-2.569,2.045-3.448c0.865-0.708,1.744-1.377,2.609-1.993C159.7,182.235,158.769,171.851,163.607,164.036z"/>
	</g>
</g>
</svg>
